<svg width="1379" height="416" xmlns="http://www.w3.org/2000/svg" xmlns:xlink="http://www.w3.org/1999/xlink" xml:space="preserve" overflow="hidden"><g transform="translate(-514 -686)"><path d="M871 757.25 1466.23 757.25 1466.23 784.75 871 784.75ZM871 812.25 829.75 771 871 729.75 912.25 771ZM1452.48 729.75 1534.98 771 1452.48 812.25Z"/><path d="M7.47357e-06-13.75 595.226-13.7497 595.226 13.7503-7.47357e-06 13.75ZM-2.24207e-05 41.25C-22.7818 41.25-41.25 22.7817-41.25-2.24207e-05-41.25-22.7818-22.7817-41.25 2.24207e-05-41.25 22.7818-41.25 41.25-22.7817 41.25 2.24207e-05 41.25 22.7818 22.7817 41.25-2.24207e-05 41.25ZM581.476-41.2497 663.976 0.000360892 581.476 41.2503Z" transform="matrix(-1 0 0 1 1485.98 1017)"/><path d="M1642.5 812.501C1642.5 789.857 1660.86 771.5 1683.5 771.5L1848.5 771.5C1871.14 771.5 1889.5 789.857 1889.5 812.501L1889.5 976.499C1889.5 999.143 1871.14 1017.5 1848.5 1017.5L1683.5 1017.5C1660.86 1017.5 1642.5 999.143 1642.5 976.499Z" stroke="#000000" stroke-width="6.875" stroke-miterlimit="8" fill-rule="evenodd"/><path d="M517.5 812.501C517.5 789.857 535.857 771.5 558.501 771.5L722.499 771.5C745.143 771.5 763.5 789.857 763.5 812.501L763.5 976.499C763.5 999.143 745.143 1017.5 722.499 1017.5L558.501 1017.5C535.857 1017.5 517.5 999.143 517.5 976.499Z" stroke="#000000" stroke-width="6.875" stroke-miterlimit="8" fill-rule="evenodd"/><path d="M763.5 894.5 1642.17 894.5" stroke="#000000" stroke-width="20.625" stroke-miterlimit="8" stroke-dasharray="82.5 61.875" fill="none" fill-rule="evenodd"/></g></svg>