<svg width="54" height="32" xmlns="http://www.w3.org/2000/svg" xmlns:xlink="http://www.w3.org/1999/xlink" xml:space="preserve" overflow="hidden"><defs><clipPath id="clip0"><rect x="1169" y="328" width="54" height="32"/></clipPath></defs><g clip-path="url(#clip0)" transform="translate(-1169 -328)"><path d="M42.6871 10.666C41.1926 10.6641 39.7689 10.9684 38.4754 11.5214L36.3169 7.99856 43.3339 7.99856C44.438 7.99856 45.3335 7.10303 45.3335 5.99892L45.3335 1.99964C45.3335 0.895533 44.438 0 43.3339 0L38.3338 0C37.7042 0 37.111 0.296598 36.7341 0.799856L34.0762 4.34372 31.8048 0.637206C31.5618 0.241105 31.1313 -3.39912e-16 30.6682 -3.39912e-16L24.3344 -3.39912e-16C23.7814 -3.39912e-16 23.3336 0.447767 23.3336 1.00078L23.3336 1.66669C23.3336 2.2197 23.7814 2.66746 24.3344 2.66746L29.9219 2.66746 33.1902 8.00048 18.1326 8.00048C16.7434 6.41225 14.65 5.33301 10.6679 5.33301L6.70502 5.33301C5.98744 5.33301 5.36937 5.88411 5.33493 6.60169 5.29857 7.3671 5.90899 7.99856 6.66675 7.99856L10.666 7.99856C12.6886 7.99856 14.0109 8.68552 14.9638 9.66142L14.1008 11.2324C13.035 10.8708 11.9175 10.6794 10.7904 10.666 4.8929 10.601 0.0229624 15.3944 0 21.2919-0.0229624 27.2028 4.76087 32 10.666 32 15.6355 32 19.8108 28.5997 20.9953 23.9995L28.06 23.9995C28.8427 23.9995 29.4588 23.3279 29.388 22.5472 28.9613 17.815 31.07 13.3124 34.7746 10.5876L36.1734 12.8704C33.6208 14.8318 31.9809 17.9202 32 21.3933 32.0325 27.197 36.7666 31.9483 42.5684 32 48.4506 32.0517 53.244 27.3444 53.3321 21.4947 53.4201 15.5762 48.6037 10.6775 42.6871 10.666L42.6871 10.666ZM38.5003 2.3326 43.0009 2.3326 43.0009 5.66597 36.0012 5.66597 38.5022 2.3326ZM10.666 29.3345C6.25534 29.3345 2.66555 25.7466 2.66555 21.334 2.66555 16.9214 6.25342 13.3335 10.666 13.3335 11.3817 13.3335 12.0954 13.4292 12.7862 13.6205L8.16313 22.0248C7.67518 22.9126 8.31812 24.0014 9.3323 24.0014L18.2073 24.0014C17.107 27.1052 14.1429 29.3345 10.666 29.3345ZM26.667 21.334 11.5884 21.334 17.4552 10.6679 30.7447 10.6679C28.1481 13.5727 26.667 17.3653 26.667 21.334ZM42.3503 29.3287C38.1979 29.168 34.8339 25.804 34.6732 21.6516 34.5718 19.0435 35.7276 16.6956 37.5799 15.1647L42.3713 22.9815C42.6603 23.4523 43.2764 23.5996 43.7472 23.3106L44.3155 22.9624C44.7862 22.6734 44.9336 22.0573 44.6446 21.5866L39.8895 13.8291C40.7774 13.5 41.7188 13.3316 42.666 13.3316 47.0767 13.3316 50.6665 16.9195 50.6665 21.3321 50.6665 25.7447 46.9045 29.5028 42.3503 29.3268Z" transform="matrix(1.01008 0 0 1 1169.06 328)"/></g></svg>