<?xml version="1.0" encoding="UTF-8"?>
<svg version="1.1" xmlns="http://www.w3.org/2000/svg" width="133" height="141">
<path d="M0 0 C1.46973518 0.61124222 1.46973518 0.61124222 2.96916199 1.23483276 C5.03373639 2.09674157 7.09517219 2.9662031 9.15356445 3.84277344 C12.26723814 5.16873013 15.38921593 6.47312006 18.51367188 7.7734375 C24.19274854 10.14773047 29.84470154 12.57946559 35.48046875 15.0546875 C36.17718689 15.35822144 36.87390503 15.66175537 37.59173584 15.9744873 C49.08732535 21.04621432 49.08732535 21.04621432 51.48046875 27.0546875 C51.98112179 30.18469066 52.00256012 33.20322669 51.91796875 36.3671875 C51.90330566 37.24874512 51.88864258 38.13030273 51.87353516 39.03857422 C50.98113593 70.64769572 37.41605779 99.36153199 14.67578125 121.140625 C6.95024585 128.31532008 -4.06220551 136.86233354 -14.89453125 137.8671875 C-25.54654546 137.03590508 -35.93113095 128.9899391 -43.51953125 122.0546875 C-43.99632324 121.62027344 -44.47311523 121.18585938 -44.96435547 120.73828125 C-67.05793495 100.35512665 -80.32587583 71.77653028 -81.8359375 41.75390625 C-81.88662332 39.95859504 -81.92716179 38.16296566 -81.95703125 36.3671875 C-81.97942871 35.52945801 -82.00182617 34.69172852 -82.02490234 33.82861328 C-82.00411245 28.42652361 -81.14477621 25.3043156 -77.51953125 21.0546875 C-74.01845587 17.96021877 -69.92360651 16.42258333 -65.6328125 14.7265625 C-64.85753708 14.41446838 -64.08226166 14.10237427 -63.28349304 13.78082275 C-60.80188116 12.78316392 -58.31710333 11.79369159 -55.83203125 10.8046875 C-53.4042984 9.83223497 -50.97724954 8.85809871 -48.55050659 7.88317871 C-46.93746175 7.23660067 -45.32329917 6.59280425 -43.70803833 5.95178223 C-39.72183259 4.36565644 -35.76373914 2.73929846 -31.83740234 1.00976562 C-31.08573288 0.68381409 -30.33406342 0.35786255 -29.55961609 0.02203369 C-28.15795343 -0.58859628 -26.76165738 -1.21178575 -25.37263489 -1.85064697 C-16.1361877 -5.84181683 -8.94757353 -3.85014935 0 0 Z M-25.79296875 9.34375 C-26.59376862 9.68465668 -27.39456848 10.02556335 -28.21963501 10.37680054 C-30.7816221 11.46936741 -33.33816694 12.57403701 -35.89453125 13.6796875 C-38.40804253 14.75787578 -40.92263941 15.83349224 -43.43756104 16.90838623 C-45.08471993 17.61253967 -46.73133174 18.3179743 -48.37738037 19.02471924 C-54.81679194 21.78155131 -61.30544923 24.39234326 -67.83056641 26.93896484 C-70.39414288 27.80192536 -70.39414288 27.80192536 -71.51953125 29.0546875 C-73.83640882 55.78789019 -62.70760151 84.70258521 -45.94140625 105.19140625 C-38.18346378 114.3632963 -28.7327285 122.31636742 -17.51953125 127.0546875 C-7.076265 127.27225555 2.02539968 119.11947375 9.25170898 112.30834961 C28.80901912 93.24828658 40.69836799 64.72627065 41.59765625 37.5078125 C41.60427978 34.6861881 41.55591657 31.87491518 41.48046875 29.0546875 C31.20211057 24.17056043 20.76054819 19.71319054 10.25732422 15.33886719 C7.45455325 14.16886925 4.65706703 12.98676968 1.859375 11.8046875 C0.06671925 11.05654125 -1.72623868 10.30911852 -3.51953125 9.5625 C-4.34976807 9.20946808 -5.18000488 8.85643616 -6.03540039 8.4927063 C-13.94141109 5.23300073 -18.09213978 5.98089481 -25.79296875 9.34375 Z " fill="#221E20" transform="translate(81.51953125,3.9453125)"/>
<path d="M0 0 C5.64215135 3.23834089 9.41284042 7.24583587 11.4296875 13.4921875 C12.50847751 18.35413154 12.84089166 23.03449176 12.625 28 C13.759375 28.45375 14.89375 28.9075 16.0625 29.375 C19.625 31 19.625 31 20.625 33 C20.75992591 35.43387727 20.83754153 37.83790249 20.86328125 40.2734375 C20.871353 40.99359039 20.87942474 41.71374329 20.88774109 42.45571899 C20.90157614 43.98054602 20.9123009 45.50540394 20.92016602 47.03027344 C20.9373841 49.35932201 20.98127204 51.6869525 21.02539062 54.015625 C21.03551744 55.4973854 21.04403358 56.97915786 21.05078125 58.4609375 C21.06828934 59.15585297 21.08579742 59.85076843 21.10383606 60.56674194 C21.08950306 63.77047652 20.9217819 65.61644082 18.93559265 68.18338013 C16.11683869 70.39952345 14.73683832 70.50575794 11.18554688 70.51757812 C10.09761841 70.53018677 9.00968994 70.54279541 7.88879395 70.55578613 C6.71892944 70.54768921 5.54906494 70.53959229 4.34375 70.53125 C2.53529602 70.53699036 2.53529602 70.53699036 0.69030762 70.54284668 C-1.85832555 70.54556826 -4.40698654 70.53819005 -6.95556641 70.52148438 C-10.86033302 70.5000804 -14.76325948 70.52128003 -18.66796875 70.546875 C-21.14323323 70.54423177 -23.61849657 70.5391069 -26.09375 70.53125 C-27.84854675 70.54339539 -27.84854675 70.54339539 -29.63879395 70.55578613 C-31.27068665 70.53687317 -31.27068665 70.53687317 -32.93554688 70.51757812 C-33.8916687 70.51439575 -34.84779053 70.51121338 -35.83288574 70.50793457 C-39.13808079 69.84753041 -40.33069524 68.6350062 -42.375 66 C-42.77342915 63.3673606 -42.93715695 61.15987832 -42.90625 58.53125 C-42.9100769 57.813927 -42.91390381 57.096604 -42.91784668 56.35754395 C-42.92056227 54.84463086 -42.91322555 53.33167055 -42.89648438 51.81884766 C-42.87506551 49.50707024 -42.89629351 47.19839987 -42.921875 44.88671875 C-42.91923166 43.41405566 -42.91410653 41.9413945 -42.90625 40.46875 C-42.91434692 39.78010864 -42.92244385 39.09146729 -42.93078613 38.38195801 C-42.86527127 35.01767582 -42.57179536 33.25915863 -40.51367188 30.54882812 C-37.92900568 28.67701051 -36.49782301 28.65301967 -33.375 29 C-33.42140625 28.01 -33.4678125 27.02 -33.515625 26 C-33.99240217 11.68399507 -33.99240217 11.68399507 -29.375 6 C-21.35541949 -2.45666665 -10.89308684 -4.89447321 0 0 Z M-22.375 8 C-23.48875 8.86625 -23.48875 8.86625 -24.625 9.75 C-29.06348299 15.45662098 -28.375 22.03590958 -28.375 29 C-16.825 29 -5.275 29 6.625 29 C6.68282123 17.12262832 6.68282123 17.12262832 0.625 7.5 C-4.00893073 3.63839106 -7.83054128 3.66111648 -13.6484375 3.71484375 C-17.4524034 4.11267973 -19.52902315 5.5010935 -22.375 8 Z M-36.375 35 C-36.375 44.57 -36.375 54.14 -36.375 64 C-19.545 64 -2.715 64 14.625 64 C14.625 54.43 14.625 44.86 14.625 35 C-2.205 35 -19.035 35 -36.375 35 Z " fill="#000000" transform="translate(76.375,28)"/>
<path d="M0 0 C1.875 1.125 1.875 1.125 3 3 C3.42478586 7.07794425 3.31282587 8.53076119 1 12 C0.29835358 13.98799818 -0.37372872 15.98698517 -1 18 C-2.65 17.67 -4.3 17.34 -6 17 C-6.309375 16.05125 -6.61875 15.1025 -6.9375 14.125 C-7.87394742 11.13919592 -7.87394742 11.13919592 -9 9 C-9.44720497 3.74534161 -9.44720497 3.74534161 -7.875 1.125 C-5.11909116 -0.52854531 -3.14924548 -0.39365568 0 0 Z " fill="#000000" transform="translate(68,69)"/>
</svg>
