<svg width="157" height="118" xmlns="http://www.w3.org/2000/svg" xmlns:xlink="http://www.w3.org/1999/xlink" xml:space="preserve" overflow="hidden"><defs><clipPath id="clip0"><rect x="3939" y="362" width="157" height="118"/></clipPath></defs><g clip-path="url(#clip0)" transform="translate(-3939 -362)"><path d="M3992 430C3999.74 430 4006 423.737 4006 416 4006 408.263 3999.74 402 3992 402 3984.26 402 3978 408.263 3978 416 3978 423.737 3984.26 430 3992 430ZM3990.89 414.526C3990.89 414.526 3991.26 414.158 3991.26 414.158 3997.89 409.368 3997.89 409.368 3997.89 409.368 3998.26 409 3998.63 409.737 3998.63 410.105 3993.84 416.737 3993.84 416.737 3993.84 416.737 3993.47 416.737 3993.47 416.737 3993.47 417.105 3992.74 417.842 3991.63 417.842 3990.89 417.105 3990.16 416.368 3990.16 415.263 3990.89 414.526Z" fill-rule="evenodd"/><path d="M4081.69 362C3953.31 362 3953.31 362 3953.31 362 3945.4 362 3939 368.368 3939 376.235 3939 465.765 3939 465.765 3939 465.765 3939 473.632 3945.4 480 3953.31 480 4081.69 480 4081.69 480 4081.69 480 4089.6 480 4096 473.632 4096 465.765 4096 376.235 4096 376.235 4096 376.235 4096 368.368 4089.6 362 4081.69 362ZM4086.59 465.765C4086.59 468.387 4084.33 470.635 4081.69 470.635 3953.31 470.635 3953.31 470.635 3953.31 470.635 3950.67 470.635 3948.41 468.387 3948.41 465.765 3948.41 376.235 3948.41 376.235 3948.41 376.235 3948.41 373.613 3950.67 371.365 3953.31 371.365 4081.69 371.365 4081.69 371.365 4081.69 371.365 4084.33 371.365 4086.59 373.613 4086.59 376.235L4086.59 465.765Z" fill-rule="evenodd"/><path d="M4072.63 382C3961.37 382 3961.37 382 3961.37 382 3959.5 382 3958 383.484 3958 385.339 3958 447.29 3958 447.29 3958 447.29 3958 449.516 3959.5 451 3961.37 451 4072.63 451 4072.63 451 4072.63 451 4074.5 451 4076 449.516 4076 447.29 4076 385.339 4076 385.339 4076 385.339 4076 383.484 4074.5 382 4072.63 382ZM4066.63 441.726C3967.36 441.726 3967.36 441.726 3967.36 441.726 3967.36 391.274 3967.36 391.274 3967.36 391.274 4066.63 391.274 4066.63 391.274 4066.63 391.274L4066.63 441.726Z" fill-rule="evenodd"/><path d="M4026.06 456C4008.94 456 4008.94 456 4008.94 456 4006.28 456 4004 458 4004 460.8 4004 463.6 4006.28 466 4008.94 466 4026.06 466 4026.06 466 4026.06 466 4028.72 466 4031 463.6 4031 460.8 4031 458 4028.72 456 4026.06 456Z" fill-rule="evenodd"/><path d="M4017.76 431C4027.24 431 4027.24 431 4027.24 431 4027.62 431 4028 430.632 4028 429.895 4028 418.105 4028 418.105 4028 418.105 4028 417.368 4027.62 417 4027.24 417 4017.76 417 4017.76 417 4017.76 417 4017.38 417 4017 417.368 4017 418.105 4017 429.895 4017 429.895 4017 429.895 4017 430.632 4017.38 431 4017.76 431Z" fill-rule="evenodd"/><path d="M4033.1 431C4041.9 431 4041.9 431 4041.9 431 4042.63 431 4043 430.642 4043 429.926 4043 403.074 4043 403.074 4043 403.074 4043 402.358 4042.63 402 4041.9 402 4033.1 402 4033.1 402 4033.1 402 4032.37 402 4032 402.358 4032 403.074 4032 429.926 4032 429.926 4032 429.926 4032 430.642 4032.37 431 4033.1 431Z" fill-rule="evenodd"/><path d="M4047.1 431C4055.9 431 4055.9 431 4055.9 431 4056.63 431 4057 430.629 4057 429.887 4057 408.742 4057 408.742 4057 408.742 4057 408.371 4056.63 408 4055.9 408 4047.1 408 4047.1 408 4047.1 408 4046.37 408 4046 408.371 4046 408.742 4046 429.887 4046 429.887 4046 429.887 4046 430.629 4046.37 431 4047.1 431Z" fill-rule="evenodd"/></g></svg>