<svg width="141" height="139" xmlns="http://www.w3.org/2000/svg" xmlns:xlink="http://www.w3.org/1999/xlink" xml:space="preserve" overflow="hidden"><defs><clipPath id="clip0"><rect x="895" y="360" width="141" height="139"/></clipPath></defs><g clip-path="url(#clip0)" transform="translate(-895 -360)"><path d="M1018.02 430.967C1014.25 430 1010.16 432.257 1009.22 436.126 1008.27 438.383 1008.9 440.963 1010.48 442.897 1007.65 452.248 1007.65 452.248 1007.65 452.248 990.661 459.341 990.661 459.341 990.661 459.341 989.089 459.986 987.831 461.598 987.831 463.21 987.831 485.458 987.831 485.458 987.831 485.458 986.258 486.748 985 489.005 985 491.584 985 495.453 988.145 499 992.234 499 996.008 499 999.468 495.453 999.468 491.584 999.468 489.005 998.21 486.748 996.322 485.458 996.322 466.112 996.322 466.112 996.322 466.112 1012.68 459.341 1012.68 459.341 1012.68 459.341 1013.94 458.696 1014.88 457.729 1015.19 456.439 1018.34 445.154 1018.34 445.154 1018.34 445.154 1020.54 444.509 1022.43 442.575 1023.06 440.318 1024 436.126 1021.8 432.257 1018.02 430.967Z" fill-rule="evenodd"/><path d="M1034.71 392.396C1003.32 361.283 1003.32 361.283 1003.32 361.283 1002.35 360.641 1001.38 360 1000.09 360 933.765 360 933.765 360 933.765 360 932.794 360 931.5 360.641 930.853 361.283 913.706 378.283 913.706 378.283 913.706 378.283 911.118 377.962 908.853 378.604 906.912 380.528 904 383.415 904 387.906 906.912 390.792 909.824 393.679 914.677 393.679 917.588 390.792 919.206 389.189 920.177 386.623 919.529 384.377 935.706 368.66 935.706 368.66 935.706 368.66 998.471 368.66 998.471 368.66 998.471 368.66 1027.26 397.207 1027.26 397.207 1027.26 397.207 1027.26 407.151 1027.26 407.151 1027.26 407.151 1023.06 412.283 1023.06 412.283 1023.06 412.283 1020.47 412.283 1018.21 413.245 1016.59 415.17 1014 418.057 1014.32 422.868 1017.56 425.434 1020.79 428 1025.32 427.679 1027.91 424.472 1029.53 422.547 1030.18 419.981 1029.53 417.736 1034.71 411.641 1034.71 411.641 1034.71 411.641 1035.35 410.679 1036 409.717 1036 408.755 1036 395.283 1036 395.283 1036 395.283 1036 394.321 1035.35 393.038 1034.71 392.396Z" fill-rule="evenodd"/><path d="M938.576 429.474C936.316 429.474 934.057 430.737 932.766 432.632 920.823 432.632 920.823 432.632 920.823 432.632 906.943 419.368 906.943 419.368 906.943 419.368 906.943 409.263 906.943 409.263 906.943 409.263 908.557 408 909.848 405.789 909.848 403.263 909.848 399.158 906.62 396 902.424 396 898.551 396 895 399.158 895 403.263 895 405.789 896.291 408 898.228 409.263 898.228 421.263 898.228 421.263 898.228 421.263 898.228 422.526 898.551 423.474 899.519 424.421 915.981 439.895 915.981 439.895 915.981 439.895 916.949 440.526 917.918 441.158 919.209 441.158 932.766 441.158 932.766 441.158 932.766 441.158 934.057 443.053 936.316 444 938.576 444 942.772 444 946 440.842 946 436.737 946 432.947 942.772 429.474 938.576 429.474Z" fill-rule="evenodd"/><path d="M979.144 466.622C979.144 458.659 979.144 458.659 979.144 458.659 979.144 457.385 978.51 456.111 977.558 455.155 964.548 445.6 964.548 445.6 964.548 445.6 964.865 443.37 963.596 440.822 961.692 439.548 958.519 437 954.077 437.637 951.539 440.822 949 444.007 949.635 448.785 952.808 451.015 955.029 452.607 957.25 452.926 959.471 452.289 970.577 460.57 970.577 460.57 970.577 460.57 970.577 466.622 970.577 466.622 970.577 466.622 968.673 467.896 967.404 470.126 967.404 472.674 967.404 476.496 970.894 480 974.702 480 978.827 480 982 476.496 982 472.674 982 470.126 981.048 467.896 979.144 466.622Z" fill-rule="evenodd"/><path d="M992.141 441.122C1002.02 432.244 1002.02 432.244 1002.02 432.244 1003.67 430.659 1004 428.122 1002.35 426.22 997.082 420.512 997.082 420.512 997.082 420.512 997.412 418.293 996.753 416.073 995.106 414.171 992.141 411.317 987.529 411 984.565 413.854 981.271 416.39 981.271 421.146 983.906 424 985.553 425.902 988.188 426.537 990.494 426.22 992.8 428.756 992.8 428.756 992.8 428.756 986.212 434.781 986.212 434.781 986.212 434.781 983.906 434.463 981.271 435.098 979.294 436.683 976.329 439.22 976 443.976 978.965 446.829 981.929 450 986.541 450 989.506 447.463 991.482 445.561 992.471 443.341 992.141 441.122Z" fill-rule="evenodd"/><path d="M993.072 403.187C995.91 406 1000.32 406 1003.16 403.187 1006 400.375 1006 395.687 1003.16 392.875 1001.27 391.312 998.748 390.687 996.541 391 987.397 382.25 987.397 382.25 987.397 382.25 986.451 381.312 985.505 381 984.243 381 955.865 381 955.865 381 955.865 381 954.919 381 953.973 381.312 953.342 381.937 945.775 388.5 945.775 388.5 945.775 388.5 943.568 388.187 941.045 388.5 939.153 390.062 936.315 392.875 936 397.25 938.523 400.375 941.36 403.187 945.775 403.5 948.928 401 950.82 399.437 951.451 396.937 951.135 394.75 957.442 389.125 957.442 389.125 957.442 389.125 982.667 389.125 982.667 389.125 982.667 389.125 990.865 396.937 990.865 396.937 990.865 396.937 990.55 399.437 991.18 401.625 993.072 403.187Z" fill-rule="evenodd"/><path d="M929.784 401.938C926.588 399.438 921.794 400.063 919.237 403.188 917 406.313 917.639 411 920.835 413.188 922.753 414.75 925.309 415.063 927.547 414.438 934.897 420.063 934.897 420.063 934.897 420.063 935.536 420.688 936.495 421 937.454 421 955.031 421 955.031 421 955.031 421 955.99 421 956.948 420.375 957.588 420.063 968.773 411 968.773 411 968.773 411 971.01 411.625 973.567 411.313 975.485 409.75 978.68 407.25 979 402.563 976.443 399.438 973.887 396.625 969.093 396 966.216 398.5 964.299 400.063 963.34 402.25 963.34 404.438 953.433 412.563 953.433 412.563 953.433 412.563 938.732 412.563 938.732 412.563 938.732 412.563 932.66 407.875 932.66 407.875 932.66 407.875 932.66 405.688 931.701 403.5 929.784 401.938Z" fill-rule="evenodd"/></g></svg>