<svg width="170" height="170" xmlns="http://www.w3.org/2000/svg" xmlns:xlink="http://www.w3.org/1999/xlink" xml:space="preserve" overflow="hidden"><defs><clipPath id="clip0"><rect x="523" y="671" width="170" height="170"/></clipPath></defs><g clip-path="url(#clip0)" transform="translate(-523 -671)"><path d="M599.299 722.249 599.299 722.249 531.987 761.259C531.796 759.347 531.796 757.625 531.796 756.096 531.796 733.913 541.358 713.07 557.994 698.537L599.299 722.249ZM641.56 765.275 641.56 765.275 641.56 687.637C662.977 698.154 678.276 718.042 682.865 741.371L641.56 765.275ZM658.006 813.464 658.006 813.464 616.701 789.752 684.012 750.741C684.204 752.462 684.204 754.183 684.204 756.096 684.204 778.087 674.642 798.93 658.006 813.464ZM583.236 780.381 583.236 780.381 650.548 819.2C637.927 827.806 623.202 832.204 607.904 832.204 599.49 832.204 591.076 830.865 583.236 827.997L583.236 780.381ZM583.236 770.438 583.236 770.438 583.236 741.754 608.096 727.412 632.764 741.754 632.764 770.246 607.904 784.588 583.236 770.438ZM565.452 692.8 565.452 692.8C578.073 684.195 592.797 679.796 607.904 679.796 616.509 679.796 624.923 681.135 632.764 684.003L632.764 731.619 565.452 692.8ZM574.44 746.726 574.44 746.726 574.44 824.363C553.022 813.846 537.724 793.958 533.135 770.629L574.44 746.726ZM607.904 671 607.904 671C561.245 671 523 709.245 523 756.096 523 802.755 561.245 841 607.904 841 654.755 841 693 802.755 693 756.096 693 709.245 654.755 671 607.904 671Z" fill="#010101" fill-rule="evenodd"/></g></svg>