<svg width="163" height="101" xmlns="http://www.w3.org/2000/svg" xmlns:xlink="http://www.w3.org/1999/xlink" xml:space="preserve" overflow="hidden"><defs><clipPath id="clip0"><rect x="215" y="432" width="163" height="101"/></clipPath></defs><g clip-path="url(#clip0)" transform="translate(-215 -432)"><path d="M367.133 473.148C367.133 473.148 367.133 473.148 367.133 473.148 367.133 473.148 367.133 472.808 366.794 472.468 352.871 448.323 326.383 432 296.5 432 281.898 432 267.975 436.081 256.089 442.882 255.75 442.882 255.75 443.222 255.41 443.222 255.41 443.222 255.41 443.222 255.41 443.222 243.185 450.364 233.337 460.566 226.206 472.468 225.867 472.808 225.867 472.808 225.867 473.148 225.867 473.148 225.867 473.148 225.867 473.148 218.735 485.051 215 498.993 215 513.956 215 516.337 217.037 518.377 219.754 518.377 277.823 518.377 277.823 518.377 277.823 518.377 280.2 526.879 287.671 533 296.5 533 305.329 533 312.8 526.879 314.838 518.377 373.246 518.377 373.246 518.377 373.246 518.377 375.963 518.377 378 516.337 378 513.956 378 498.993 374.265 485.391 367.133 473.148ZM296.5 523.478C291.067 523.478 286.652 519.057 286.652 513.956 286.652 510.896 288.01 508.175 290.048 506.475 291.746 513.276 291.746 513.276 291.746 513.276 292.085 515.317 294.123 517.017 296.16 517.017 296.5 517.017 296.84 516.677 297.179 516.677 299.556 516.337 301.254 513.616 300.575 511.236 299.217 504.434 299.217 504.434 299.217 504.434 303.292 505.795 306.348 509.535 306.348 513.956 306.348 519.057 301.933 523.478 296.5 523.478ZM314.838 509.195C312.8 501.034 305.669 494.913 297.179 494.573 291.746 469.748 291.746 469.748 291.746 469.748 291.406 467.367 288.69 465.667 286.312 466.347 283.596 466.687 282.237 469.067 282.577 471.788 288.01 496.613 288.01 496.613 288.01 496.613 283.256 498.993 279.521 503.754 277.823 509.195 224.508 509.195 224.508 509.195 224.508 509.195 225.187 499.333 227.564 490.152 231.979 481.65 242.506 487.431 242.506 487.431 242.506 487.431 243.185 487.771 244.204 487.771 244.883 487.771 246.581 487.771 247.939 487.091 248.958 485.391 249.977 483.01 249.298 480.29 246.921 478.929 236.394 473.488 236.394 473.488 236.394 473.488 241.827 465.667 248.619 458.865 256.769 453.424 264.579 466.007 264.579 466.007 264.579 466.007 265.258 467.367 266.956 468.047 268.315 468.047 269.333 468.047 270.012 467.707 271.031 467.367 273.069 466.007 273.748 462.946 272.39 460.906 264.579 449.003 264.579 449.003 264.579 449.003 273.069 444.923 282.237 442.202 291.746 441.522 291.746 454.104 291.746 454.104 291.746 454.104 291.746 456.825 293.783 458.865 296.5 458.865 299.217 458.865 301.254 456.825 301.254 454.104 301.254 441.522 301.254 441.522 301.254 441.522 311.442 442.202 321.29 445.263 329.779 449.684 322.988 460.906 322.988 460.906 322.988 460.906 321.629 462.946 322.308 466.007 324.685 467.367 325.365 467.707 326.044 468.047 327.063 468.047 328.421 468.047 330.119 467.367 331.138 465.667 337.929 454.445 337.929 454.445 337.929 454.445 345.06 459.546 351.513 466.007 356.267 473.488 345.06 478.929 345.06 478.929 345.06 478.929 342.683 480.29 342.004 483.01 343.023 485.391 344.042 487.091 345.4 487.771 347.098 487.771 347.777 487.771 348.796 487.771 349.475 487.431 361.021 481.65 361.021 481.65 361.021 481.65 365.436 489.812 367.813 499.333 368.492 509.195L314.838 509.195Z" fill-rule="evenodd"/></g></svg>