<svg width="184" height="132" xmlns="http://www.w3.org/2000/svg" xmlns:xlink="http://www.w3.org/1999/xlink" xml:space="preserve" overflow="hidden"><defs><clipPath id="clip0"><rect x="1049" y="399" width="184" height="132"/></clipPath></defs><g clip-path="url(#clip0)" transform="translate(-1049 -399)"><path d="M1081.88 462.989C1096.43 462.989 1111 462.989 1125.56 463 1125.85 463 1126.01 462.9 1126.16 462.665 1127.43 460.796 1128.72 458.943 1129.99 457.074 1130.18 456.895 1130.3 456.638 1130.3 456.347L1130.3 440.539C1130.3 439.99 1129.86 439.548 1129.31 439.548L1127.98 439.548C1127.43 439.548 1126.99 439.99 1126.99 440.539L1126.99 456.347C1126.99 456.476 1127.02 456.605 1127.06 456.716 1126.03 456.716 1125.04 456.716 1124 456.716L1124 440.606C1124 440.024 1123.53 439.548 1122.95 439.548L1121.74 439.548C1121.16 439.548 1120.68 440.024 1120.68 440.606L1120.68 456.716C1119.73 456.716 1118.79 456.716 1117.83 456.716L1117.83 440.606C1117.83 440.024 1117.35 439.548 1116.77 439.548L1115.57 439.548C1114.98 439.548 1114.51 440.024 1114.51 440.606L1114.51 456.722C1113.48 456.722 1112.49 456.722 1111.45 456.722 1111.45 451.507 1111.45 446.308 1111.45 441.104 1111.44 441.104 1111.43 441.104 1111.42 441.104L1111.42 440.606C1111.42 440.024 1110.94 439.548 1110.36 439.548L1109.15 439.548C1108.57 439.548 1108.1 440.024 1108.1 440.606L1108.1 456.711C1107.14 456.711 1106.2 456.711 1105.24 456.711L1105.24 440.606C1105.24 440.024 1104.76 439.548 1104.18 439.548L1102.98 439.548C1102.39 439.548 1101.92 440.024 1101.92 440.606L1101.92 456.711C1100.96 456.711 1100.03 456.711 1099.06 456.711L1099.06 440.606C1099.06 440.024 1098.59 439.548 1098.01 439.548L1096.8 439.548C1096.22 439.548 1095.74 440.024 1095.74 440.606L1095.74 456.722C1095.67 456.733 1095.62 456.744 1095.58 456.744 1092.08 456.744 1088.57 456.75 1085.06 456.739 1084.92 456.739 1084.75 456.649 1084.64 456.549 1084.26 456.196 1083.92 455.81 1083.54 455.463 1083.33 455.278 1083.26 455.077 1083.26 454.802 1083.27 451.736 1083.27 448.664 1083.27 445.597 1083.27 445.144 1083.13 444.596 1083.33 444.26 1083.53 443.93 1084.08 443.812 1084.48 443.6 1084.51 443.583 1084.56 443.577 1084.58 443.549 1084.67 443.426 1084.81 443.303 1084.81 443.175 1084.82 440.472 1084.82 437.769 1084.81 435.066 1084.81 434.943 1084.69 434.764 1084.58 434.697 1084.23 434.49 1083.87 434.311 1083.5 434.148 1083.31 434.064 1083.26 433.947 1083.26 433.74 1083.26 431.048 1083.26 428.362 1083.27 425.671 1083.27 425.514 1083.35 425.329 1083.46 425.212 1083.8 424.832 1084.2 424.484 1084.54 424.104 1084.73 423.897 1084.93 423.83 1085.2 423.83 1088.85 423.835 1092.49 423.83 1096.14 423.841 1096.46 423.841 1096.58 423.768 1096.6 423.427 1096.66 422.028 1096.75 420.629 1096.84 419.23 1096.87 418.687 1096.91 418.15 1096.95 417.568 1098.92 417.568 1100.85 417.568 1102.81 417.568 1103.08 415.459 1103.34 413.383 1103.6 411.329 1109.89 411.329 1116.13 411.329 1122.38 411.329 1122.64 413.416 1122.9 415.481 1123.16 417.579 1125.13 417.579 1127.07 417.579 1129.02 417.579 1129.04 417.73 1129.06 417.842 1129.06 417.954 1129.17 419.756 1129.29 421.558 1129.38 423.36 1129.4 423.724 1129.49 423.847 1129.89 423.841 1133.52 423.824 1137.15 423.83 1140.79 423.835 1140.97 423.835 1141.2 423.891 1141.33 424.009 1141.76 424.395 1142.16 424.815 1142.57 425.24 1142.65 425.329 1142.72 425.475 1142.72 425.598 1142.73 428.323 1142.73 431.054 1142.72 433.779 1142.72 433.897 1142.62 434.053 1142.51 434.115 1142.2 434.305 1141.87 434.473 1141.53 434.607 1141.26 434.719 1141.16 434.87 1141.17 435.173 1141.18 436.7 1141.17 438.228 1141.18 439.755 1141.18 439.873 1141.19 439.996 1141.2 440.198 1141.33 440.024 1141.41 439.918 1141.48 439.806 1142.09 438.894 1142.69 437.976 1143.31 437.069 1143.45 436.868 1143.62 436.672 1143.82 436.521 1145.44 435.234 1147.07 433.953 1148.7 432.682 1148.91 432.52 1149 432.358 1149 432.089 1149 424.675 1149 417.266 1149 409.851 1149 409.639 1148.98 409.421 1148.96 409.208 1148.69 407.177 1146.57 404.994 1144.02 405 1131.94 405.028 1119.87 405.011 1107.8 405.011 1099.18 405.011 1090.56 405.011 1081.94 405.011 1079.26 405.011 1077 407.277 1077 409.958 1077 426.006 1077 442.055 1077 458.104 1077.02 460.712 1079.29 462.989 1081.88 462.989Z" fill-rule="evenodd"/><path d="M1232.46 433.906 1230.61 432.093C1229.88 431.379 1228.71 431.385 1228 432.115L1218.78 441.511C1217.56 442.733 1216.34 443.96 1215.11 445.193L1212.68 442.939 1222.56 432.59C1222.93 432.199 1222.91 431.585 1222.52 431.212L1221.54 430.269C1221.15 429.895 1220.54 429.912 1220.16 430.302L1210.26 440.685 1207.99 438.571 1218.02 428.048C1218.4 427.658 1218.38 427.044 1217.99 426.67L1217.01 425.727C1216.62 425.353 1216 425.37 1215.63 425.761L1205.56 436.317 1203.42 434.33 1213.61 423.641C1213.99 423.25 1213.97 422.636 1213.58 422.263L1212.6 421.32C1212.21 420.946 1211.59 420.963 1211.22 421.353L1200.99 432.076 1198.92 430.152 1209.28 419.295C1209.65 418.904 1209.63 418.29 1209.24 417.917L1208.26 416.974C1207.87 416.6 1207.26 416.616 1206.88 417.007L1196.53 427.864C1196.52 427.875 1196.51 427.886 1196.5 427.898L1194.46 425.995C1194.52 425.956 1194.57 425.911 1194.63 425.856L1204.99 414.999C1205.36 414.608 1205.34 413.994 1204.95 413.621L1203.97 412.678C1203.58 412.304 1202.96 412.321 1202.59 412.711L1192.24 423.568C1192.17 423.635 1192.12 423.713 1192.08 423.792L1190.05 421.9C1190.19 421.85 1190.32 421.772 1190.43 421.655L1200.79 410.798C1201.16 410.407 1201.14 409.793 1200.75 409.42L1199.77 408.477C1199.38 408.103 1198.77 408.12 1198.39 408.51L1188.04 419.367C1187.92 419.495 1187.84 419.652 1187.8 419.814L1185.58 417.744 1198.89 403.785C1199.57 403.065 1199.55 401.927 1198.83 401.241L1197.02 399.5C1196.3 398.814 1195.16 398.836 1194.48 399.556L1188.44 405.888C1177.89 416.382 1167.32 426.899 1156.78 437.382 1153.62 437.605 1151.62 436.026 1151.42 436.015 1149.98 437.137 1138.64 451.938 1134.67 457.925 1134.65 457.953 1134.63 457.986 1134.61 458.02 1134.63 458.198 1134.64 458.321 1134.66 458.499 1139.14 462.985 1143.62 467.465 1148.02 471.867 1148.02 472.079 1148.02 472.196 1148.03 472.408 1147.15 473.345 1146.28 474.288 1145.39 475.242 1145.17 475.248 1145.05 475.248 1144.82 475.253 1140.87 471.32 1136.97 467.432 1133.04 463.52 1132.71 463.191 1132.38 462.862 1132.06 462.533 1132.03 462.511 1132.01 462.494 1131.99 462.471 1131.91 462.388 1131.82 462.304 1131.74 462.221 1131.73 462.215 1131.73 462.215 1131.72 462.221 1131.71 462.243 1131.69 462.259 1131.68 462.282 1131.19 462.081 1130.6 462.232 1130.29 462.706 1129.57 463.794 1128.85 464.871 1128.15 465.948 1127.82 466.444 1127.86 467.08 1128.21 467.543 1128.2 467.554 1128.2 467.56 1128.19 467.571 1128.19 467.577 1128.19 467.582 1128.19 467.582 1132.12 471.515 1136.03 475.432 1140 479.399L1139.92 479.477C1139.95 479.449 1139.97 479.427 1140 479.399 1140.11 479.51 1140.22 479.622 1140.34 479.734 1140.33 479.951 1140.33 480.074 1140.33 480.291 1139.41 481.156 1138.48 482.032 1137.48 482.975 1137.33 483.114 1137.09 483.114 1136.95 482.969 1134.91 480.927 1132.86 478.874 1130.81 476.81 1129.09 475.058 1127.37 473.295 1125.64 471.521 1125.63 471.515 1125.63 471.515 1125.62 471.521 1125.61 471.538 1125.6 471.554 1125.59 471.571 1125.48 471.465 1125.37 471.354 1125.26 471.248 1124.58 470.561 1123.44 470.678 1122.91 471.487 1122.34 472.352 1121.77 473.217 1121.2 474.082 1120.74 474.774 1120.83 475.7 1121.42 476.286 1125.14 480.012 1128.85 483.728 1132.54 487.422 1132.69 487.572 1132.69 487.812 1132.54 487.957 1131.61 488.889 1130.68 489.821 1129.72 490.775 1129.51 490.775 1129.39 490.775 1129.18 490.775 1125.85 487.438 1122.5 484.068 1119.12 480.682 1118.44 479.996 1117.3 480.113 1116.77 480.916 1116.19 481.781 1115.63 482.646 1115.05 483.511 1114.6 484.202 1114.69 485.128 1115.28 485.714 1118.47 488.917 1121.66 492.108 1124.83 495.288 1124.98 495.439 1124.97 495.679 1124.83 495.824 1123.91 496.744 1123.01 497.648 1122.08 498.58 1121.93 498.73 1121.69 498.73 1121.54 498.58 1118.71 495.734 1115.84 492.867 1112.98 489.988 1112.29 489.302 1111.16 489.419 1110.62 490.222 1110.05 491.087 1109.48 491.952 1108.91 492.817 1108.45 493.509 1108.54 494.435 1109.13 495.02 1111.89 497.782 1114.64 500.538 1117.37 503.289 1117.32 503.356 1117.27 503.412 1117.23 503.462 1115.15 505.749 1112.9 507.853 1110.41 509.671 1106.16 512.779 1101.5 514.943 1096.24 515.68 1091.05 516.405 1086.08 515.641 1081.32 513.487 1075.7 510.943 1071.24 506.999 1067.8 501.916 1062.42 493.994 1060.33 485.223 1061.35 475.711 1061.79 471.616 1062.89 467.694 1064.54 463.928 1066.46 459.526 1069.05 455.542 1072.18 451.91 1072.41 451.637 1072.53 451.375 1072.53 451.007 1072.52 447.43 1072.52 443.854 1072.52 440.278 1072.52 440.144 1072.52 440.01 1072.52 439.809 1072.4 439.904 1072.33 439.954 1072.27 440.01 1068.34 443.419 1064.71 447.124 1061.48 451.219 1057.72 456 1054.62 461.166 1052.41 466.851 1049.75 473.73 1048.57 480.844 1049.14 488.225 1049.47 492.577 1050.37 496.817 1051.95 500.884 1056.57 512.796 1064.59 521.594 1076.14 527.078 1080.42 529.109 1084.94 530.32 1089.65 530.788 1090.44 530.866 1091.24 530.928 1092.04 531 1092.05 531 1092.06 531 1092.07 531L1095.34 531C1095.36 531 1095.38 530.995 1095.4 530.995 1095.53 530.972 1095.66 530.95 1095.8 530.933 1097.15 530.799 1098.53 530.721 1099.88 530.515 1105.88 529.6 1111.41 527.419 1116.56 524.216 1120.92 521.499 1124.77 518.179 1128.27 514.425 1128.27 514.425 1128.27 514.425 1128.27 514.419 1128.5 514.408 1128.62 514.402 1128.85 514.385 1131.38 516.918 1133.82 519.368 1136.28 521.834 1136.29 521.839 1136.29 521.839 1136.29 521.834 1136.31 521.823 1136.33 521.811 1136.34 521.8 1136.79 522.146 1137.42 522.174 1137.91 521.856 1138.97 521.148 1140.03 520.445 1141.11 519.736 1141.58 519.429 1141.73 518.843 1141.53 518.363 1141.54 518.358 1141.54 518.352 1141.55 518.352 1141.56 518.347 1141.56 518.341 1141.55 518.336 1141.53 518.313 1141.51 518.291 1141.49 518.268 1141.44 518.168 1141.37 518.068 1141.28 517.984 1138.85 515.551 1136.43 513.13 1134.03 510.714 1133.79 510.48 1133.56 510.24 1133.33 510.006 1133.33 509.794 1133.33 509.666 1133.33 509.454 1134.23 508.544 1135.12 507.651 1136.03 506.742 1136.18 506.592 1136.42 506.592 1136.56 506.742 1139.42 509.61 1142.29 512.483 1145.17 515.367 1145.75 515.953 1146.67 516.042 1147.35 515.591 1148.33 514.943 1149.3 514.291 1150.29 513.638 1150.76 513.325 1150.91 512.734 1150.71 512.249 1150.71 512.243 1150.72 512.238 1150.73 512.232 1150.74 512.226 1150.74 512.221 1150.73 512.215 1150.7 512.187 1150.67 512.159 1150.65 512.132 1150.6 512.042 1150.54 511.959 1150.46 511.886 1149.61 511.027 1148.75 510.173 1147.9 509.32 1145.59 506.96 1143.29 504.6 1141 502.256 1141 502.044 1141 501.922 1141 501.71 1141.87 500.834 1142.77 499.93 1143.7 499.009 1143.85 498.859 1144.09 498.859 1144.23 499.009 1147.63 502.418 1151.05 505.844 1154.48 509.275 1155.06 509.861 1155.97 509.95 1156.66 509.498 1157.64 508.851 1158.61 508.198 1159.6 507.546 1160.1 507.216 1160.24 506.569 1159.98 506.067 1159.98 506.062 1159.99 506.056 1160 506.05 1159.97 506.022 1159.94 505.989 1159.91 505.961 1159.87 505.9 1159.83 505.844 1159.77 505.794 1159.26 505.28 1158.75 504.767 1158.23 504.254 1155.04 501.001 1151.87 497.754 1148.71 494.54 1148.71 494.329 1148.71 494.206 1148.71 493.994 1149.67 493.04 1150.65 492.058 1151.65 491.053L1151.74 490.97C1155.5 494.742 1159.29 498.535 1163.08 502.335 1163.66 502.921 1164.57 503.01 1165.26 502.558 1166.11 501.994 1166.96 501.431 1167.82 500.862 1168.61 500.332 1168.73 499.199 1168.05 498.524 1164.07 494.535 1160.11 490.568 1156.19 486.652 1156.16 486.624 1156.14 486.596 1156.11 486.568 1157.15 485.519 1158.17 484.498 1159.21 483.449 1159.43 483.449 1159.55 483.449 1159.76 483.449 1164.2 487.896 1168.67 492.376 1173.14 496.862 1173.33 496.884 1173.45 496.895 1173.63 496.912 1173.63 496.906 1173.64 496.901 1173.65 496.901 1179.65 492.911 1194.98 481.312 1194.96 480.699 1195.26 480.096 1193.78 477.474 1194.27 475.125 1194.77 472.776 1212.28 457.015 1212.28 457.015 1212.35 456.965 1212.42 456.909 1212.47 456.848L1214.34 454.94 1219.74 449.517 1219.7 449.483 1232.44 436.506C1233.19 435.798 1233.18 434.626 1232.46 433.906Z" fill-rule="evenodd"/></g></svg>