<svg width="179" height="111" xmlns="http://www.w3.org/2000/svg" xmlns:xlink="http://www.w3.org/1999/xlink" xml:space="preserve" overflow="hidden"><defs><clipPath id="clip0"><rect x="2826" y="751" width="179" height="111"/></clipPath></defs><g clip-path="url(#clip0)" transform="translate(-2826 -751)"><path d="M2933.49 815.125C2934.62 812.889 2935 810.279 2933.87 807.669 2932.36 804.314 2930.47 798.721 2928.59 793.129 2925.19 783.808 2921.8 774.115 2918.78 769.641 2910.48 758.084 2896.91 751 2882.57 751 2869 751 2869 751 2869 751 2846.37 751 2827.51 768.523 2826.38 789.774 2826 801.704 2830.9 812.889 2839.58 821.091 2839.58 855.017 2839.58 855.017 2839.58 855.017 2839.58 856.509 2841.09 858 2842.6 858 2845.99 858 2845.99 858 2845.99 858 2847.5 858 2848.63 856.509 2848.63 855.017 2848.63 816.99 2848.63 816.99 2848.63 816.99 2846.37 814.753 2846.37 814.753 2846.37 814.753 2839.2 808.415 2835.43 799.467 2835.43 790.146 2836.18 773.742 2851.27 759.948 2869 759.948 2882.57 759.948 2882.57 759.948 2882.57 759.948 2893.89 759.948 2904.83 765.54 2911.24 774.861 2913.88 778.216 2917.27 787.909 2919.91 796.112 2921.42 800.958 2923.31 805.805 2924.82 809.906 2912.37 809.906 2912.37 809.906 2912.37 809.906 2912.37 830.411 2912.37 830.411 2912.37 830.411 2912.37 833.394 2909.73 836.004 2907.09 836.004 2885.97 836.004 2885.97 836.004 2885.97 836.004 2885.97 855.017 2885.97 855.017 2885.97 855.017 2885.97 856.509 2887.1 858 2888.61 858 2892 858 2892 858 2892 858 2893.51 858 2895.02 856.509 2895.02 855.017 2895.02 844.951 2895.02 844.951 2895.02 844.951 2907.09 844.951 2907.09 844.951 2907.09 844.951 2915.01 844.951 2921.42 838.613 2921.42 830.411 2921.42 818.854 2921.42 818.854 2921.42 818.854 2926.7 818.854 2926.7 818.854 2926.7 818.854 2929.34 818.854 2931.98 817.362 2933.49 815.125Z" fill-rule="evenodd"/><path d="M2886 792C2886 788.134 2889.13 785 2893 785 2896.87 785 2900 788.134 2900 792 2900 795.866 2896.87 799 2893 799 2889.13 799 2886 795.866 2886 792Z" fill-rule="evenodd"/><path d="M2931.5 825C2929.56 825 2928 826.5 2928 828.375 2928 839.625 2928 839.625 2928 839.625 2928 841.5 2929.56 843 2931.5 843 2933.44 843 2935 841.5 2935 839.625 2935 828.375 2935 828.375 2935 828.375 2935 826.5 2933.44 825 2931.5 825Z" fill-rule="evenodd"/><path d="M2941.5 819C2939.56 819 2938 820.526 2938 822.434 2938 844.947 2938 844.947 2938 844.947 2938 846.474 2939.56 848 2941.5 848 2943.44 848 2945 846.474 2945 844.947 2945 822.434 2945 822.434 2945 822.434 2945 820.526 2943.44 819 2941.5 819Z" fill-rule="evenodd"/><path d="M2952 827C2949.78 827 2948 828.529 2948 830.441 2948 836.559 2948 836.559 2948 836.559 2948 838.471 2949.78 840 2952 840 2954.22 840 2956 838.471 2956 836.559 2956 830.441 2956 830.441 2956 830.441 2956 828.529 2954.22 827 2952 827Z" fill-rule="evenodd"/><path d="M2962.5 814C2960.56 814 2959 815.482 2959 817.333 2959 850.667 2959 850.667 2959 850.667 2959 852.518 2960.56 854 2962.5 854 2964.44 854 2966 852.518 2966 850.667 2966 817.333 2966 817.333 2966 817.333 2966 815.482 2964.44 814 2962.5 814Z" fill-rule="evenodd"/><path d="M2972.5 821C2970.56 821 2969 822.444 2969 823.889 2969 844.111 2969 844.111 2969 844.111 2969 845.917 2970.56 847 2972.5 847 2974.44 847 2976 845.917 2976 844.111 2976 823.889 2976 823.889 2976 823.889 2976 822.444 2974.44 821 2972.5 821Z" fill-rule="evenodd"/><path d="M2982.18 805C2980.41 805 2979 806.481 2979 808.331 2979 858.669 2979 858.669 2979 858.669 2979 860.52 2980.41 862 2982.18 862 2983.94 862 2985 860.52 2985 858.669 2985 808.331 2985 808.331 2985 808.331 2985 806.481 2983.94 805 2982.18 805Z" fill-rule="evenodd"/><path d="M2992.18 824C2990.41 824 2989 825.538 2989 827.461 2989 840.923 2989 840.923 2989 840.923 2989 842.461 2990.41 844 2992.18 844 2993.94 844 2995 842.461 2995 840.923 2995 827.461 2995 827.461 2995 827.461 2995 825.538 2993.94 824 2992.18 824Z" fill-rule="evenodd"/><path d="M3002.18 814C3000.41 814 2999 815.482 2999 817.333 2999 850.667 2999 850.667 2999 850.667 2999 852.518 3000.41 854 3002.18 854 3003.94 854 3005 852.518 3005 850.667 3005 817.333 3005 817.333 3005 817.333 3005 815.482 3003.94 814 3002.18 814Z" fill-rule="evenodd"/></g></svg>