<svg width="158" height="107" xmlns="http://www.w3.org/2000/svg" xmlns:xlink="http://www.w3.org/1999/xlink" xml:space="preserve" overflow="hidden"><g transform="translate(-839 -812)"><path d="M973.28 817.69C973.28 817.69 973.28 817.69 973.28 817.69 972.933 817.345 972.24 817 971.547 817 970.853 817 970.16 817.345 969.813 817.69 966.693 820.797 966.693 820.797 966.693 820.797 966 821.488 966 823.214 966.693 824.249 977.093 835.295 982.987 850.139 982.987 865.673 982.987 881.206 977.093 895.705 966.693 907.096 966 908.132 966 909.513 966.693 910.548 969.813 913.31 969.813 913.31 969.813 913.31 970.16 914 970.853 914 971.547 914 971.547 914 971.547 914 971.547 914 972.24 914 972.587 914 973.28 913.31 973.28 913.31 973.28 913.31 973.28 913.31 985.413 900.537 992 883.278 992 865.673 992 847.723 985.413 830.808 973.28 817.69Z" stroke="#000000" stroke-width="10.3125" stroke-linejoin="round" stroke-miterlimit="10" fill-rule="evenodd"/><path d="M901.497 818C899.786 818 898.075 818.681 896.706 820.043 875.144 841.495 875.144 841.495 875.144 841.495 850.503 841.495 850.503 841.495 850.503 841.495 846.738 841.495 844 844.559 844 847.964 844 883.036 844 883.036 844 883.036 844 886.781 846.738 889.505 850.503 889.505 875.144 889.505 875.144 889.505 875.144 889.505 896.706 911.297 896.706 911.297 896.706 911.297 898.075 912.319 899.786 913 901.497 913 904.577 913 908 910.616 908 906.53 908 824.47 908 824.47 908 824.47 908 820.384 904.577 818 901.497 818ZM898.759 900.401C878.909 880.652 878.909 880.652 878.909 880.652 853.241 880.652 853.241 880.652 853.241 880.652 853.241 850.688 853.241 850.688 853.241 850.688 878.909 850.688 878.909 850.688 878.909 850.688 898.759 830.939 898.759 830.939 898.759 830.939L898.759 900.401Z" stroke="#000000" stroke-width="10.3125" stroke-linejoin="round" stroke-miterlimit="10" fill-rule="evenodd"/><path d="M949.667 835.038C949.667 835.038 949.667 835.038 949.667 835.038 946.667 838.154 946.667 838.154 946.667 838.154 946 838.846 946 840.577 946.667 841.615 958.333 855.461 958.333 876.231 946.667 890.077 946 891.115 946 892.5 946.667 893.538 949.667 896.308 949.667 896.308 949.667 896.308 950 897 950.667 897 951.333 897 951.333 897 951.333 897 951.333 897 952 897 952.667 897 953 896.308 953 896.308 953 896.308 953 896.308 968 879 968 852.692 953 835.385 952 834.346 950.667 834 949.667 835.038Z" stroke="#000000" stroke-width="10.3125" stroke-linejoin="round" stroke-miterlimit="10" fill-rule="evenodd"/><path d="M930.457 852.729C927.714 855.494 927.714 855.494 927.714 855.494 926 856.877 926.686 857.914 927.372 858.605 927.372 858.605 927.714 858.951 928.057 859.988 929.086 861.716 929.429 863.79 929.429 865.519 929.429 867.247 929.086 869.321 927.714 871.395 926.686 873.469 926.686 874.16 928.057 875.198 928.057 875.198 929.429 876.235 930.8 877.617 932.172 879 934.229 877.617 934.914 876.235 936.971 873.123 938 869.321 938 865.519 938 861.37 936.629 857.222 934.229 853.42 933.543 852.729 932.172 851 930.457 852.729Z" stroke="#000000" stroke-width="10.3125" stroke-linejoin="round" stroke-miterlimit="10" fill-rule="evenodd"/></g></svg>