<svg width="2800" height="919" xmlns="http://www.w3.org/2000/svg" xmlns:xlink="http://www.w3.org/1999/xlink" xml:space="preserve" overflow="hidden"><defs><filter id="fx0" x="-10%" y="-10%" width="120%" height="120%" filterUnits="userSpaceOnUse" primitiveUnits="userSpaceOnUse"><feComponentTransfer color-interpolation-filters="sRGB"><feFuncR type="discrete" tableValues="0 0"/><feFuncG type="discrete" tableValues="0 0"/><feFuncB type="discrete" tableValues="0 0"/><feFuncA type="linear" slope="0.431373" intercept="0"/></feComponentTransfer><feGaussianBlur stdDeviation="1.18451 1.18451"/></filter><filter id="fx1" x="-10%" y="-10%" width="120%" height="120%" filterUnits="userSpaceOnUse" primitiveUnits="userSpaceOnUse"><feComponentTransfer color-interpolation-filters="sRGB"><feFuncR type="discrete" tableValues="0 0"/><feFuncG type="discrete" tableValues="0 0"/><feFuncB type="discrete" tableValues="0 0"/><feFuncA type="linear" slope="0.431373" intercept="0"/></feComponentTransfer><feGaussianBlur stdDeviation="0.954206 0.954206"/></filter><filter id="fx2" x="-10%" y="-10%" width="120%" height="120%" filterUnits="userSpaceOnUse" primitiveUnits="userSpaceOnUse"><feComponentTransfer color-interpolation-filters="sRGB"><feFuncR type="discrete" tableValues="0 0"/><feFuncG type="discrete" tableValues="0 0"/><feFuncB type="discrete" tableValues="0 0"/><feFuncA type="linear" slope="0.431373" intercept="0"/></feComponentTransfer><feGaussianBlur stdDeviation="1.18451 1.18451"/></filter><filter id="fx3" x="-10%" y="-10%" width="120%" height="120%" filterUnits="userSpaceOnUse" primitiveUnits="userSpaceOnUse"><feComponentTransfer color-interpolation-filters="sRGB"><feFuncR type="discrete" tableValues="0 0"/><feFuncG type="discrete" tableValues="0 0"/><feFuncB type="discrete" tableValues="0 0"/><feFuncA type="linear" slope="0.431373" intercept="0"/></feComponentTransfer><feGaussianBlur stdDeviation="1.18451 1.18451"/></filter><filter id="fx4" x="-10%" y="-10%" width="120%" height="120%" filterUnits="userSpaceOnUse" primitiveUnits="userSpaceOnUse"><feComponentTransfer color-interpolation-filters="sRGB"><feFuncR type="discrete" tableValues="0 0"/><feFuncG type="discrete" tableValues="0 0"/><feFuncB type="discrete" tableValues="0 0"/><feFuncA type="linear" slope="0.431373" intercept="0"/></feComponentTransfer><feGaussianBlur stdDeviation="1.18451 1.18451"/></filter><filter id="fx5" x="-10%" y="-10%" width="120%" height="120%" filterUnits="userSpaceOnUse" primitiveUnits="userSpaceOnUse"><feComponentTransfer color-interpolation-filters="sRGB"><feFuncR type="discrete" tableValues="0 0"/><feFuncG type="discrete" tableValues="0 0"/><feFuncB type="discrete" tableValues="0 0"/><feFuncA type="linear" slope="0.431373" intercept="0"/></feComponentTransfer><feGaussianBlur stdDeviation="1.18451 1.18451"/></filter><filter id="fx6" x="-10%" y="-10%" width="120%" height="120%" filterUnits="userSpaceOnUse" primitiveUnits="userSpaceOnUse"><feComponentTransfer color-interpolation-filters="sRGB"><feFuncR type="discrete" tableValues="0 0"/><feFuncG type="discrete" tableValues="0 0"/><feFuncB type="discrete" tableValues="0 0"/><feFuncA type="linear" slope="0.431373" intercept="0"/></feComponentTransfer><feGaussianBlur stdDeviation="1.18451 1.18451"/></filter><filter id="fx7" x="-10%" y="-10%" width="120%" height="120%" filterUnits="userSpaceOnUse" primitiveUnits="userSpaceOnUse"><feComponentTransfer color-interpolation-filters="sRGB"><feFuncR type="discrete" tableValues="0 0"/><feFuncG type="discrete" tableValues="0 0"/><feFuncB type="discrete" tableValues="0 0"/><feFuncA type="linear" slope="0.431373" intercept="0"/></feComponentTransfer><feGaussianBlur stdDeviation="1.18451 1.18451"/></filter><filter id="fx8" x="-10%" y="-10%" width="120%" height="120%" filterUnits="userSpaceOnUse" primitiveUnits="userSpaceOnUse"><feComponentTransfer color-interpolation-filters="sRGB"><feFuncR type="discrete" tableValues="0 0"/><feFuncG type="discrete" tableValues="0 0"/><feFuncB type="discrete" tableValues="0 0"/><feFuncA type="linear" slope="0.431373" intercept="0"/></feComponentTransfer><feGaussianBlur stdDeviation="1.18451 1.18451"/></filter><filter id="fx9" x="-10%" y="-10%" width="120%" height="120%" filterUnits="userSpaceOnUse" primitiveUnits="userSpaceOnUse"><feComponentTransfer color-interpolation-filters="sRGB"><feFuncR type="discrete" tableValues="0 0"/><feFuncG type="discrete" tableValues="0 0"/><feFuncB type="discrete" tableValues="0 0"/><feFuncA type="linear" slope="0.431373" intercept="0"/></feComponentTransfer><feGaussianBlur stdDeviation="1.18451 1.18451"/></filter><filter id="fx10" x="-10%" y="-10%" width="120%" height="120%" filterUnits="userSpaceOnUse" primitiveUnits="userSpaceOnUse"><feComponentTransfer color-interpolation-filters="sRGB"><feFuncR type="discrete" tableValues="0 0"/><feFuncG type="discrete" tableValues="0 0"/><feFuncB type="discrete" tableValues="0 0"/><feFuncA type="linear" slope="0.431373" intercept="0"/></feComponentTransfer><feGaussianBlur stdDeviation="1.18451 1.18451"/></filter><filter id="fx11" x="-10%" y="-10%" width="120%" height="120%" filterUnits="userSpaceOnUse" primitiveUnits="userSpaceOnUse"><feComponentTransfer color-interpolation-filters="sRGB"><feFuncR type="discrete" tableValues="0 0"/><feFuncG type="discrete" tableValues="0 0"/><feFuncB type="discrete" tableValues="0 0"/><feFuncA type="linear" slope="0.431373" intercept="0"/></feComponentTransfer><feGaussianBlur stdDeviation="1.18451 1.18451"/></filter><filter id="fx12" x="-10%" y="-10%" width="120%" height="120%" filterUnits="userSpaceOnUse" primitiveUnits="userSpaceOnUse"><feComponentTransfer color-interpolation-filters="sRGB"><feFuncR type="discrete" tableValues="0 0"/><feFuncG type="discrete" tableValues="0 0"/><feFuncB type="discrete" tableValues="0 0"/><feFuncA type="linear" slope="0.431373" intercept="0"/></feComponentTransfer><feGaussianBlur stdDeviation="1.18451 1.18451"/></filter><filter id="fx13" x="-10%" y="-10%" width="120%" height="120%" filterUnits="userSpaceOnUse" primitiveUnits="userSpaceOnUse"><feComponentTransfer color-interpolation-filters="sRGB"><feFuncR type="discrete" tableValues="0 0"/><feFuncG type="discrete" tableValues="0 0"/><feFuncB type="discrete" tableValues="0 0"/><feFuncA type="linear" slope="0.431373" intercept="0"/></feComponentTransfer><feGaussianBlur stdDeviation="1.18451 1.18451"/></filter><filter id="fx14" x="-10%" y="-10%" width="120%" height="120%" filterUnits="userSpaceOnUse" primitiveUnits="userSpaceOnUse"><feComponentTransfer color-interpolation-filters="sRGB"><feFuncR type="discrete" tableValues="0 0"/><feFuncG type="discrete" tableValues="0 0"/><feFuncB type="discrete" tableValues="0 0"/><feFuncA type="linear" slope="0.431373" intercept="0"/></feComponentTransfer><feGaussianBlur stdDeviation="1.18451 1.18451"/></filter><clipPath id="clip15"><rect x="31" y="23" width="181" height="43"/></clipPath><clipPath id="clip16"><rect x="23" y="10" width="287" height="43"/></clipPath><clipPath id="clip17"><rect x="31" y="23" width="85" height="41"/></clipPath><clipPath id="clip18"><rect x="31" y="39" width="27" height="11"/></clipPath><clipPath id="clip19"><rect x="29" y="23" width="393" height="55"/></clipPath><clipPath id="clip20"><rect x="31" y="23" width="207" height="53"/></clipPath><clipPath id="clip21"><rect x="31" y="23" width="97" height="43"/></clipPath><clipPath id="clip22"><rect x="31" y="23" width="75" height="41"/></clipPath><clipPath id="clip23"><rect x="31" y="21" width="157" height="49"/></clipPath><clipPath id="clip24"><rect x="31" y="23" width="141" height="47"/></clipPath><clipPath id="clip25"><rect x="31" y="23" width="85" height="41"/></clipPath><clipPath id="clip26"><rect x="31" y="39" width="27" height="11"/></clipPath><clipPath id="clip27"><rect x="31" y="23" width="353" height="55"/></clipPath><clipPath id="clip28"><rect x="29" y="23" width="183" height="43"/></clipPath><clipPath id="clip29"><rect x="35" y="15" width="221" height="59"/></clipPath></defs><g transform="translate(-240 -529)"><path d="M250.5 840.668C250.5 819.588 267.588 802.5 288.667 802.5L603.333 802.5C624.412 802.5 641.5 819.588 641.5 840.668L641.5 993.333C641.5 1014.41 624.412 1031.5 603.333 1031.5L288.667 1031.5C267.588 1031.5 250.5 1014.41 250.5 993.333Z" stroke="#F9B500" stroke-width="4.58333" stroke-miterlimit="8" fill="#F9B500" fill-rule="evenodd"/><g clip-path="url(#clip15)" filter="url(#fx0)" transform="translate(326 853)"><g><path d="M30.038-32.062 17.94 0 13.11 0 1.012-32.062 5.474-32.062 15.548-4.416 25.622-32.062ZM32.7775-7.406 32.7775-10.58 48.9235-32.936 53.9375-32.936 53.9375-11.04 58.5375-11.04 58.5375-7.406 53.9375-7.406 53.9375 0 49.7975 0 49.7975-7.406ZM49.9815-28.566 37.6075-11.04 49.9815-11.04ZM67.3113-3.404 78.5353-3.404 78.5353 0 63.1253 0 63.1253-32.062 67.3113-32.062ZM81.9814-3.358C85.8761-6.486 88.9274-9.05433 91.1354-11.063 93.3434-13.0717 95.2064-15.1723 96.7244-17.365 98.2424-19.5577 99.0014-21.712 99.0014-23.828 99.0014-25.8213 98.5184-27.393 97.5524-28.543 96.5864-29.693 95.0301-30.268 92.8834-30.268 90.7981-30.268 89.1804-29.6163 88.0304-28.313 86.8804-27.0097 86.2594-25.2693 86.1674-23.092L82.1194-23.092C82.2421-26.5267 83.2847-29.1793 85.2474-31.05 87.2101-32.9207 89.7401-33.856 92.8374-33.856 95.9961-33.856 98.5031-32.982 100.358-31.234 102.214-29.486 103.141-27.0787 103.141-24.012 103.141-21.4667 102.382-18.9903 100.864-16.583 99.3464-14.1757 97.6214-12.0597 95.6894-10.235 93.7574-8.41033 91.2887-6.28667 88.2834-3.864L104.107-3.864 104.107-0.368 81.9814-0.368ZM119.698 0.322C117.582 0.322 115.688-0.0536667 114.017-0.805 112.345-1.55633 111.034-2.599 110.084-3.933 109.133-5.267 108.642-6.808 108.612-8.556L113.074-8.556C113.227-7.05333 113.848-5.78833 114.937-4.761 116.025-3.73367 117.612-3.22 119.698-3.22 121.691-3.22 123.263-3.71833 124.413-4.715 125.563-5.71167 126.138-6.992 126.138-8.556 126.138-9.78267 125.8-10.7793 125.126-11.546 124.451-12.3127 123.608-12.8953 122.596-13.294 121.584-13.6927 120.219-14.122 118.502-14.582 116.386-15.134 114.691-15.686 113.419-16.238 112.146-16.79 111.057-17.6563 110.153-18.837 109.248-20.0177 108.796-21.6047 108.796-23.598 108.796-25.346 109.24-26.8947 110.13-28.244 111.019-29.5933 112.269-30.636 113.879-31.372 115.489-32.108 117.336-32.476 119.422-32.476 122.427-32.476 124.888-31.7247 126.805-30.222 128.721-28.7193 129.802-26.726 130.048-24.242L125.448-24.242C125.294-25.4687 124.65-26.5497 123.516-27.485 122.381-28.4203 120.878-28.888 119.008-28.888 117.26-28.888 115.834-28.4357 114.73-27.531 113.626-26.6263 113.074-25.3613 113.074-23.736 113.074-22.5707 113.403-21.62 114.063-20.884 114.722-20.148 115.535-19.5883 116.501-19.205 117.467-18.8217 118.824-18.3847 120.572-17.894 122.688-17.3113 124.39-16.7363 125.678-16.169 126.966-15.6017 128.07-14.7277 128.99-13.547 129.91-12.3663 130.37-10.764 130.37-8.74 130.37-7.176 129.956-5.704 129.128-4.324 128.3-2.944 127.073-1.82467 125.448-0.966 123.822-0.107333 121.906 0.322 119.698 0.322ZM140.645-21.114C141.381-22.5553 142.431-23.6747 143.796-24.472 145.16-25.2693 146.824-25.668 148.787-25.668L148.787-21.344 147.683-21.344C142.991-21.344 140.645-18.7987 140.645-13.708L140.645 0 136.459 0 136.459-25.208 140.645-25.208ZM152.082-12.65C152.082-15.2567 152.603-17.5337 153.646-19.481 154.689-21.4283 156.138-22.9387 157.993-24.012 159.848-25.0853 161.972-25.622 164.364-25.622 167.461-25.622 170.014-24.8707 172.023-23.368 174.032-21.8653 175.358-19.78 176.002-17.112L171.494-17.112C171.065-18.6453 170.229-19.8567 168.987-20.746 167.745-21.6353 166.204-22.08 164.364-22.08 161.972-22.08 160.04-21.2597 158.568-19.619 157.096-17.9783 156.36-15.6553 156.36-12.65 156.36-9.614 157.096-7.268 158.568-5.612 160.04-3.956 161.972-3.128 164.364-3.128 166.204-3.128 167.737-3.55733 168.964-4.416 170.191-5.27467 171.034-6.50133 171.494-8.096L176.002-8.096C175.327-5.52 173.978-3.45767 171.954-1.909 169.93-0.360333 167.4 0.414 164.364 0.414 161.972 0.414 159.848-0.122667 157.993-1.196 156.138-2.26933 154.689-3.78733 153.646-5.75 152.603-7.71267 152.082-10.0127 152.082-12.65Z" transform="matrix(1 0 0 1 32.9075 61)"/></g></g><text font-family="Poppins,Poppins_MSFontService,sans-serif" font-weight="400" font-size="46" transform="matrix(1 0 0 1 356.395 912)">V4L2Src</text><g clip-path="url(#clip16)" filter="url(#fx1)" transform="translate(281 913)"><g><path d="M9.952 5.952C7.904 3.94667 6.30933 1.39733 5.168-1.696 4.02667-4.78933 3.456-8.128 3.456-11.712 3.456-15.3813 4.05867-18.8107 5.264-22 6.46933-25.1893 8.192-27.8187 10.432-29.888L13.472-29.888 13.472-29.6C11.0827-27.36 9.28533-24.6667 8.08-21.52 6.87467-18.3733 6.272-15.104 6.272-11.712 6.272-8.40533 6.84267-5.248 7.984-2.24 9.12533 0.768 10.7947 3.40267 12.992 5.664L12.992 5.952ZM27.9549-11.488C28.7656-11.36 29.5069-11.0293 30.1789-10.496 30.8509-9.96267 31.3842-9.30133 31.7789-8.512 32.1736-7.72267 32.3709-6.88 32.3709-5.984 32.3709-4.85333 32.0829-3.83467 31.5069-2.928 30.9309-2.02133 30.0936-1.30667 28.9949-0.784 27.8962-0.261333 26.6002 0 25.1069 0L16.7869 0 16.7869-22.304 24.7869-22.304C26.3016-22.304 27.5922-22.0533 28.6589-21.552 29.7256-21.0507 30.5256-20.3733 31.0589-19.52 31.5922-18.6667 31.8589-17.7067 31.8589-16.64 31.8589-15.3173 31.5016-14.224 30.7869-13.36 30.0722-12.496 29.1282-11.872 27.9549-11.488ZM19.6989-12.672 24.5949-12.672C25.9602-12.672 27.0162-12.992 27.7629-13.632 28.5096-14.272 28.8829-15.1573 28.8829-16.288 28.8829-17.4187 28.5096-18.304 27.7629-18.944 27.0162-19.584 25.9389-19.904 24.5309-19.904L19.6989-19.904ZM24.8509-2.4C26.3016-2.4 27.4322-2.74133 28.2429-3.424 29.0536-4.10667 29.4589-5.056 29.4589-6.272 29.4589-7.50933 29.0322-8.48533 28.1789-9.2 27.3256-9.91467 26.1842-10.272 24.7549-10.272L19.6989-10.272 19.6989-2.4ZM35.1781-8.832C35.1781-10.624 35.5407-12.1973 36.2661-13.552 36.9914-14.9067 37.9887-15.9573 39.2581-16.704 40.5274-17.4507 41.9408-17.824 43.4981-17.824 45.0341-17.824 46.3674-17.4933 47.4981-16.832 48.6287-16.1707 49.4714-15.3387 50.0261-14.336L50.0261-17.536 52.9701-17.536 52.9701 0 50.0261 0 50.0261-3.264C49.4501-2.24 48.5914-1.392 47.4501-0.72 46.3087-0.048 44.9807 0.288 43.4661 0.288 41.9087 0.288 40.5007-0.096 39.2421-0.864 37.9834-1.632 36.9914-2.70933 36.2661-4.096 35.5407-5.48267 35.1781-7.06133 35.1781-8.832ZM50.0261-8.8C50.0261-10.1227 49.7594-11.2747 49.2261-12.256 48.6927-13.2373 47.9727-13.9893 47.0661-14.512 46.1594-15.0347 45.1621-15.296 44.0741-15.296 42.9861-15.296 41.9941-15.04 41.0981-14.528 40.2021-14.016 39.4874-13.2693 38.9541-12.288 38.4207-11.3067 38.1541-10.1547 38.1541-8.832 38.1541-7.488 38.4207-6.32 38.9541-5.328 39.4874-4.336 40.2021-3.57867 41.0981-3.056 41.9941-2.53333 42.9861-2.272 44.0741-2.272 45.1621-2.272 46.1594-2.53333 47.0661-3.056 47.9727-3.57867 48.6927-4.336 49.2261-5.328 49.7594-6.32 50.0261-7.47733 50.0261-8.8ZM64.2449 0.288C62.9009 0.288 61.6956 0.0586667 60.6289-0.4 59.5622-0.858667 58.7196-1.49867 58.1009-2.32 57.4822-3.14133 57.1409-4.08533 57.0769-5.152L60.0849-5.152C60.1702-4.27733 60.5809-3.56267 61.3169-3.008 62.0529-2.45333 63.0182-2.176 64.2129-2.176 65.3223-2.176 66.1969-2.42133 66.8369-2.912 67.4769-3.40267 67.7969-4.02133 67.7969-4.768 67.7969-5.536 67.4556-6.10667 66.7729-6.48 66.0902-6.85333 65.0342-7.22133 63.6049-7.584 62.3036-7.92533 61.2422-8.272 60.4209-8.624 59.5996-8.976 58.8956-9.49867 58.3089-10.192 57.7222-10.8853 57.4289-11.7973 57.4289-12.928 57.4289-13.824 57.6956-14.6453 58.2289-15.392 58.7622-16.1387 59.5196-16.7307 60.5009-17.168 61.4822-17.6053 62.6022-17.824 63.8609-17.824 65.8022-17.824 67.3702-17.3333 68.5649-16.352 69.7596-15.3707 70.3996-14.0267 70.4849-12.32L67.5729-12.32C67.5089-13.2373 67.1409-13.9733 66.4689-14.528 65.7969-15.0827 64.8956-15.36 63.7649-15.36 62.7196-15.36 61.8876-15.136 61.2689-14.688 60.6502-14.24 60.3409-13.6533 60.3409-12.928 60.3409-12.352 60.5276-11.8773 60.9009-11.504 61.2742-11.1307 61.7436-10.832 62.3089-10.608 62.8742-10.384 63.6582-10.1333 64.6609-9.856 65.9196-9.51467 66.9436-9.17867 67.7329-8.848 68.5222-8.51733 69.1996-8.02133 69.7649-7.36 70.3302-6.69867 70.6236-5.83467 70.6449-4.768 70.6449-3.808 70.3782-2.944 69.8449-2.176 69.3116-1.408 68.5596-0.805333 67.5889-0.368 66.6182 0.0693333 65.5036 0.288 64.2449 0.288ZM77.5635-23.68 77.5635 0 74.6515 0 74.6515-23.68ZM98.6723-9.44C98.6723-8.88533 98.6403-8.29867 98.5763-7.68L84.5603-7.68C84.667-5.952 85.259-4.60267 86.3363-3.632 87.4137-2.66133 88.7203-2.176 90.2563-2.176 91.515-2.176 92.5657-2.46933 93.4083-3.056 94.251-3.64267 94.843-4.42667 95.1843-5.408L98.3203-5.408C97.851-3.72267 96.9123-2.352 95.5043-1.296 94.0963-0.24 92.347 0.288 90.2563 0.288 88.5923 0.288 87.1043-0.0853333 85.7923-0.832 84.4803-1.57867 83.451-2.64 82.7043-4.016 81.9577-5.392 81.5843-6.98667 81.5843-8.8 81.5843-10.6133 81.947-12.2027 82.6723-13.568 83.3977-14.9333 84.4163-15.984 85.7283-16.72 87.0403-17.456 88.5497-17.824 90.2563-17.824 91.9203-17.824 93.3923-17.4613 94.6723-16.736 95.9523-16.0107 96.939-15.0133 97.6323-13.744 98.3257-12.4747 98.6723-11.04 98.6723-9.44ZM95.6643-10.048C95.6643-11.1573 95.419-12.112 94.9283-12.912 94.4377-13.712 93.771-14.32 92.9283-14.736 92.0857-15.152 91.1523-15.36 90.1283-15.36 88.6563-15.36 87.403-14.8907 86.3683-13.952 85.3337-13.0133 84.7417-11.712 84.5923-10.048ZM105.636-14.688C106.148-15.6907 106.879-16.4693 107.828-17.024 108.778-17.5787 109.935-17.856 111.3-17.856L111.3-14.848 110.532-14.848C107.268-14.848 105.636-13.0773 105.636-9.536L105.636 0 102.724 0 102.724-17.536 105.636-17.536ZM125.636-30.144 116.868 5.44 113.988 5.44 122.724-30.144ZM140.336 0.224C138.267 0.224 136.379-0.261333 134.672-1.232 132.966-2.20267 131.616-3.55733 130.624-5.296 129.632-7.03467 129.136-8.992 129.136-11.168 129.136-13.344 129.632-15.3013 130.624-17.04 131.616-18.7787 132.966-20.1333 134.672-21.104 136.379-22.0747 138.267-22.56 140.336-22.56 142.427-22.56 144.326-22.0747 146.032-21.104 147.739-20.1333 149.083-18.784 150.064-17.056 151.046-15.328 151.536-13.3653 151.536-11.168 151.536-8.97067 151.046-7.008 150.064-5.28 149.083-3.552 147.739-2.20267 146.032-1.232 144.326-0.261333 142.427 0.224 140.336 0.224ZM140.336-2.304C141.894-2.304 143.296-2.66667 144.544-3.392 145.792-4.11733 146.774-5.152 147.488-6.496 148.203-7.84 148.56-9.39733 148.56-11.168 148.56-12.96 148.203-14.5227 147.488-15.856 146.774-17.1893 145.798-18.2187 144.56-18.944 143.323-19.6693 141.915-20.032 140.336-20.032 138.758-20.032 137.35-19.6693 136.112-18.944 134.875-18.2187 133.899-17.1893 133.184-15.856 132.47-14.5227 132.112-12.96 132.112-11.168 132.112-9.39733 132.47-7.84 133.184-6.496 133.899-5.152 134.88-4.11733 136.128-3.392 137.376-2.66667 138.779-2.304 140.336-2.304ZM162.505 0.224C161.033 0.224 159.715-0.0373333 158.553-0.56 157.39-1.08267 156.478-1.808 155.817-2.736 155.155-3.664 154.814-4.736 154.793-5.952L157.897-5.952C158.003-4.90667 158.435-4.02667 159.193-3.312 159.95-2.59733 161.054-2.24 162.505-2.24 163.891-2.24 164.985-2.58667 165.785-3.28 166.585-3.97333 166.985-4.864 166.985-5.952 166.985-6.80533 166.75-7.49867 166.281-8.032 165.811-8.56533 165.225-8.97067 164.521-9.248 163.817-9.52533 162.867-9.824 161.673-10.144 160.201-10.528 159.022-10.912 158.137-11.296 157.251-11.68 156.494-12.2827 155.865-13.104 155.235-13.9253 154.921-15.0293 154.921-16.416 154.921-17.632 155.23-18.7093 155.849-19.648 156.467-20.5867 157.337-21.312 158.457-21.824 159.577-22.336 160.862-22.592 162.313-22.592 164.403-22.592 166.115-22.0693 167.449-21.024 168.782-19.9787 169.534-18.592 169.705-16.864L166.505-16.864C166.398-17.7173 165.95-18.4693 165.161-19.12 164.371-19.7707 163.326-20.096 162.025-20.096 160.809-20.096 159.817-19.7813 159.049-19.152 158.281-18.5227 157.897-17.6427 157.897-16.512 157.897-15.7013 158.126-15.04 158.585-14.528 159.043-14.016 159.609-13.6267 160.281-13.36 160.953-13.0933 161.897-12.7893 163.113-12.448 164.585-12.0427 165.769-11.6427 166.665-11.248 167.561-10.8533 168.329-10.2453 168.969-9.424 169.609-8.60267 169.929-7.488 169.929-6.08 169.929-4.992 169.641-3.968 169.065-3.008 168.489-2.048 167.635-1.26933 166.505-0.672 165.374-0.0746667 164.041 0.224 162.505 0.224ZM173.859-11.808C173.859-15.4773 174.456-18.3413 175.651-20.4 176.846-22.4587 178.936-23.488 181.923-23.488 184.888-23.488 186.968-22.4587 188.163-20.4 189.358-18.3413 189.955-15.4773 189.955-11.808 189.955-8.07467 189.358-5.17333 188.163-3.104 186.968-1.03467 184.888 0 181.923 0 178.936 0 176.846-1.03467 175.651-3.104 174.456-5.17333 173.859-8.07467 173.859-11.808ZM187.075-11.808C187.075-13.664 186.952-15.2373 186.707-16.528 186.462-17.8187 185.96-18.8587 185.203-19.648 184.446-20.4373 183.352-20.832 181.923-20.832 180.472-20.832 179.368-20.4373 178.611-19.648 177.854-18.8587 177.352-17.8187 177.107-16.528 176.862-15.2373 176.739-13.664 176.739-11.808 176.739-9.888 176.862-8.27733 177.107-6.976 177.352-5.67467 177.854-4.62933 178.611-3.84 179.368-3.05067 180.472-2.656 181.923-2.656 183.352-2.656 184.446-3.05067 185.203-3.84 185.96-4.62933 186.462-5.67467 186.707-6.976 186.952-8.27733 187.075-9.888 187.075-11.808ZM198.135-12.032C196.94-12.5013 196.023-13.184 195.383-14.08 194.743-14.976 194.423-16.064 194.423-17.344 194.423-18.496 194.711-19.536 195.287-20.464 195.863-21.392 196.722-22.128 197.863-22.672 199.004-23.216 200.386-23.488 202.007-23.488 203.628-23.488 205.01-23.216 206.151-22.672 207.292-22.128 208.156-21.392 208.743-20.464 209.33-19.536 209.623-18.496 209.623-17.344 209.623-16.1067 209.292-15.024 208.631-14.096 207.97-13.168 207.063-12.48 205.911-12.032 207.234-11.6267 208.284-10.9173 209.063-9.904 209.842-8.89067 210.231-7.66933 210.231-6.24 210.231-4.85333 209.89-3.64267 209.207-2.608 208.524-1.57333 207.559-0.773333 206.311-0.208 205.063 0.357333 203.628 0.64 202.007 0.64 200.386 0.64 198.962 0.357333 197.735-0.208 196.508-0.773333 195.554-1.57333 194.871-2.608 194.188-3.64267 193.847-4.85333 193.847-6.24 193.847-7.66933 194.231-8.896 194.999-9.92 195.767-10.944 196.812-11.648 198.135-12.032ZM206.807-16.992C206.807-18.2933 206.38-19.296 205.527-20 204.674-20.704 203.5-21.056 202.007-21.056 200.535-21.056 199.372-20.704 198.519-20 197.666-19.296 197.239-18.2827 197.239-16.96 197.239-15.7653 197.682-14.8053 198.567-14.08 199.452-13.3547 200.599-12.992 202.007-12.992 203.436-12.992 204.594-13.36 205.479-14.096 206.364-14.832 206.807-15.7973 206.807-16.992ZM202.007-10.752C200.428-10.752 199.138-10.384 198.135-9.648 197.132-8.912 196.631-7.808 196.631-6.336 196.631-4.97067 197.116-3.872 198.087-3.04 199.058-2.208 200.364-1.792 202.007-1.792 203.65-1.792 204.951-2.208 205.911-3.04 206.871-3.872 207.351-4.97067 207.351-6.336 207.351-7.76533 206.86-8.85867 205.879-9.616 204.898-10.3733 203.607-10.752 202.007-10.752ZM227.627-4.96 217.899-4.96 216.107 0 213.035 0 221.099-22.176 224.459-22.176 232.491 0 229.419 0ZM226.795-7.328 222.763-18.592 218.731-7.328ZM235.382-2.336C238.091-4.512 240.214-6.29867 241.75-7.696 243.286-9.09333 244.582-10.5547 245.638-12.08 246.694-13.6053 247.222-15.104 247.222-16.576 247.222-17.9627 246.886-19.056 246.214-19.856 245.542-20.656 244.459-21.056 242.966-21.056 241.515-21.056 240.39-20.6027 239.59-19.696 238.79-18.7893 238.358-17.5787 238.294-16.064L235.478-16.064C235.563-18.4533 236.289-20.2987 237.654-21.6 239.019-22.9013 240.779-23.552 242.934-23.552 245.131-23.552 246.875-22.944 248.166-21.728 249.457-20.512 250.102-18.8373 250.102-16.704 250.102-14.9333 249.574-13.2107 248.518-11.536 247.462-9.86133 246.262-8.38933 244.918-7.12 243.574-5.85067 241.857-4.37333 239.766-2.688L250.774-2.688 250.774-0.256 235.382-0.256ZM254.067-11.808C254.067-15.4773 254.665-18.3413 255.859-20.4 257.054-22.4587 259.145-23.488 262.131-23.488 265.097-23.488 267.177-22.4587 268.371-20.4 269.566-18.3413 270.163-15.4773 270.163-11.808 270.163-8.07467 269.566-5.17333 268.371-3.104 267.177-1.03467 265.097 0 262.131 0 259.145 0 257.054-1.03467 255.859-3.104 254.665-5.17333 254.067-8.07467 254.067-11.808ZM267.283-11.808C267.283-13.664 267.161-15.2373 266.915-16.528 266.67-17.8187 266.169-18.8587 265.411-19.648 264.654-20.4373 263.561-20.832 262.131-20.832 260.681-20.832 259.577-20.4373 258.819-19.648 258.062-18.8587 257.561-17.8187 257.315-16.528 257.07-15.2373 256.947-13.664 256.947-11.808 256.947-9.888 257.07-8.27733 257.315-6.976 257.561-5.67467 258.062-4.62933 258.819-3.84 259.577-3.05067 260.681-2.656 262.131-2.656 263.561-2.656 264.654-3.05067 265.411-3.84 266.169-4.62933 266.67-5.67467 266.915-6.976 267.161-8.27733 267.283-9.888 267.283-11.808ZM273.671 5.952 273.671 5.664C275.869 3.40267 277.538 0.768 278.679-2.24 279.821-5.248 280.391-8.40533 280.391-11.712 280.391-15.104 279.789-18.3733 278.583-21.52 277.378-24.6667 275.581-27.36 273.191-29.6L273.191-29.888 276.231-29.888C278.471-27.8187 280.194-25.1893 281.399-22 282.605-18.8107 283.207-15.3813 283.207-11.712 283.207-8.128 282.637-4.78933 281.495-1.696 280.354 1.39733 278.759 3.94667 276.711 5.952Z" transform="matrix(1 0 0 1 23.2668 44)"/></g></g><text font-family="Poppins,Poppins_MSFontService,sans-serif" font-weight="400" font-size="32" transform="matrix(1 0 0 1 302.243 955)">(Basler/OS08A20)</text><path d="M846.5 840.668C846.5 819.588 863.588 802.5 884.668 802.5L1388.33 802.5C1409.41 802.5 1426.5 819.588 1426.5 840.668L1426.5 993.333C1426.5 1014.41 1409.41 1031.5 1388.33 1031.5L884.668 1031.5C863.588 1031.5 846.5 1014.41 846.5 993.333Z" stroke="#69CA00" stroke-width="4.58333" stroke-miterlimit="8" fill="#69CA00" fill-rule="evenodd"/><g clip-path="url(#clip17)" filter="url(#fx2)" transform="translate(1053 845)"><g><path d="M5.704-29.302C4.90667-29.302 4.232-29.578 3.68-30.13 3.128-30.682 2.852-31.3567 2.852-32.154 2.852-32.9513 3.128-33.626 3.68-34.178 4.232-34.73 4.90667-35.006 5.704-35.006 6.47067-35.006 7.12233-34.73 7.659-34.178 8.19567-33.626 8.464-32.9513 8.464-32.154 8.464-31.3567 8.19567-30.682 7.659-30.13 7.12233-29.578 6.47067-29.302 5.704-29.302ZM7.728-25.208 7.728 0 3.542 0 3.542-25.208ZM45.3143-25.668C47.277-25.668 49.025-25.2617 50.5583-24.449 52.0917-23.6363 53.303-22.4173 54.1923-20.792 55.0817-19.1667 55.5263-17.1887 55.5263-14.858L55.5263 0 51.3863 0 51.3863-14.26C51.3863-16.7747 50.7653-18.699 49.5233-20.033 48.2813-21.367 46.6023-22.034 44.4863-22.034 42.309-22.034 40.5763-21.3363 39.2883-19.941 38.0003-18.5457 37.3563-16.5293 37.3563-13.892L37.3563 0 33.2163 0 33.2163-14.26C33.2163-16.7747 32.5953-18.699 31.3533-20.033 30.1113-21.367 28.4323-22.034 26.3163-22.034 24.139-22.034 22.4063-21.3363 21.1183-19.941 19.8303-18.5457 19.1863-16.5293 19.1863-13.892L19.1863 0 15.0003 0 15.0003-25.208 19.1863-25.208 19.1863-21.574C20.0143-22.8927 21.126-23.9047 22.5213-24.61 23.9167-25.3153 25.4577-25.668 27.1443-25.668 29.2603-25.668 31.131-25.1927 32.7563-24.242 34.3817-23.2913 35.593-21.896 36.3903-20.056 37.0957-21.8347 38.261-23.2147 39.8863-24.196 41.5117-25.1773 43.321-25.668 45.3143-25.668ZM75.1355 0 69.1555-9.384 63.4055 0 59.0355 0 67.1775-12.512 59.0355-25.208 63.7735-25.208 69.7535-15.87 75.4575-25.208 79.8275-25.208 71.7315-12.742 79.8735 0Z" transform="matrix(1 0 0 1 32.6893 61)"/></g></g><text font-family="Poppins,Poppins_MSFontService,sans-serif" font-weight="400" font-size="46" transform="matrix(1 0 0 1 1083.18 903)">imx</text><g clip-path="url(#clip18)" filter="url(#fx3)" transform="translate(1133 845)"><g><path d="M21.022-18.63 21.022-15.088 2.668-15.088 2.668-18.63Z" transform="matrix(1 0 0 1 32.8976 61)"/></g></g><text font-family="Poppins,Poppins_MSFontService,sans-serif" font-weight="400" font-size="46" transform="matrix(1 0 0 1 1163.38 903)">-</text><g clip-path="url(#clip19)" filter="url(#fx4)" transform="translate(911 900)"><g><path d="M12.926-3.864 20.746-25.208 25.208-25.208 15.318 0 10.442 0 0.552-25.208 5.06-25.208ZM31.4852-29.302C30.6879-29.302 30.0132-29.578 29.4612-30.13 28.9092-30.682 28.6332-31.3567 28.6332-32.154 28.6332-32.9513 28.9092-33.626 29.4612-34.178 30.0132-34.73 30.6879-35.006 31.4852-35.006 32.2519-35.006 32.9036-34.73 33.4402-34.178 33.9769-33.626 34.2452-32.9513 34.2452-32.154 34.2452-31.3567 33.9769-30.682 33.4402-30.13 32.9036-29.578 32.2519-29.302 31.4852-29.302ZM33.5092-25.208 33.5092 0 29.3232 0 29.3232-25.208ZM39.2176-12.696C39.2176-15.272 39.7389-17.5337 40.7816-19.481 41.8242-21.4283 43.2579-22.9387 45.0826-24.012 46.9072-25.0853 48.9542-25.622 51.2236-25.622 53.1862-25.622 55.0109-25.1697 56.6976-24.265 58.3842-23.3603 59.6722-22.172 60.5616-20.7L60.5616-34.04 64.7936-34.04 64.7936 0 60.5616 0 60.5616-4.738C59.7336-3.23533 58.5069-2.001 56.8816-1.035 55.2562-0.069 53.3549 0.414 51.1776 0.414 48.9389 0.414 46.9072-0.138 45.0826-1.242 43.2579-2.346 41.8242-3.89467 40.7816-5.888 39.7389-7.88133 39.2176-10.1507 39.2176-12.696ZM60.5616-12.65C60.5616-14.5513 60.1782-16.2073 59.4116-17.618 58.6449-19.0287 57.6099-20.1097 56.3066-20.861 55.0032-21.6123 53.5696-21.988 52.0056-21.988 50.4416-21.988 49.0156-21.62 47.7276-20.884 46.4396-20.148 45.4122-19.0747 44.6456-17.664 43.8789-16.2533 43.4956-14.5973 43.4956-12.696 43.4956-10.764 43.8789-9.085 44.6456-7.659 45.4122-6.233 46.4396-5.14433 47.7276-4.393 49.0156-3.64167 50.4416-3.266 52.0056-3.266 53.5696-3.266 55.0032-3.64167 56.3066-4.393 57.6099-5.14433 58.6449-6.233 59.4116-7.659 60.1782-9.085 60.5616-10.7487 60.5616-12.65ZM94.7191-13.57C94.7191-12.7727 94.6731-11.9293 94.5811-11.04L74.4331-11.04C74.5864-8.556 75.4374-6.61633 76.9861-5.221 78.5347-3.82567 80.4131-3.128 82.6211-3.128 84.4304-3.128 85.9407-3.54967 87.1521-4.393 88.3634-5.23633 89.2144-6.36333 89.7051-7.774L94.2131-7.774C93.5384-5.35133 92.1891-3.381 90.1651-1.863 88.1411-0.345 85.6264 0.414 82.6211 0.414 80.2291 0.414 78.0901-0.122667 76.2041-1.196 74.3181-2.26933 72.8384-3.795 71.7651-5.773 70.6917-7.751 70.1551-10.0433 70.1551-12.65 70.1551-15.2567 70.6764-17.5413 71.7191-19.504 72.7617-21.4667 74.2261-22.977 76.1121-24.035 77.9981-25.093 80.1677-25.622 82.6211-25.622 85.0131-25.622 87.1291-25.1007 88.9691-24.058 90.8091-23.0153 92.2274-21.5817 93.2241-19.757 94.2207-17.9323 94.7191-15.87 94.7191-13.57ZM90.3951-14.444C90.3951-16.0387 90.0424-17.411 89.3371-18.561 88.6317-19.711 87.6734-20.585 86.4621-21.183 85.2507-21.781 83.9091-22.08 82.4371-22.08 80.3211-22.08 78.5194-21.4053 77.0321-20.056 75.5447-18.7067 74.6937-16.836 74.4791-14.444ZM111.359 0.414C108.998 0.414 106.859-0.122667 104.942-1.196 103.025-2.26933 101.523-3.795 100.434-5.773 99.3452-7.751 98.8009-10.0433 98.8009-12.65 98.8009-15.226 99.3606-17.503 100.48-19.481 101.599-21.459 103.125-22.977 105.057-24.035 106.989-25.093 109.151-25.622 111.543-25.622 113.935-25.622 116.097-25.093 118.029-24.035 119.961-22.977 121.487-21.4667 122.606-19.504 123.725-17.5413 124.285-15.2567 124.285-12.65 124.285-10.0433 123.71-7.751 122.56-5.773 121.41-3.795 119.854-2.26933 117.891-1.196 115.928-0.122667 113.751 0.414 111.359 0.414ZM111.359-3.266C112.862-3.266 114.272-3.61867 115.591-4.324 116.91-5.02933 117.975-6.08733 118.788-7.498 119.601-8.90867 120.007-10.626 120.007-12.65 120.007-14.674 119.608-16.3913 118.811-17.802 118.014-19.2127 116.971-20.263 115.683-20.953 114.395-21.643 113-21.988 111.497-21.988 109.964-21.988 108.561-21.643 107.288-20.953 106.015-20.263 104.996-19.2127 104.229-17.802 103.462-16.3913 103.079-14.674 103.079-12.65 103.079-10.5953 103.455-8.86267 104.206-7.452 104.957-6.04133 105.962-4.991 107.219-4.301 108.476-3.611 109.856-3.266 111.359-3.266ZM128.02-12.65C128.02-15.2567 128.541-17.5337 129.584-19.481 130.626-21.4283 132.075-22.9387 133.931-24.012 135.786-25.0853 137.91-25.622 140.302-25.622 143.399-25.622 145.952-24.8707 147.961-23.368 149.969-21.8653 151.296-19.78 151.94-17.112L147.432-17.112C147.002-18.6453 146.167-19.8567 144.925-20.746 143.683-21.6353 142.142-22.08 140.302-22.08 137.91-22.08 135.978-21.2597 134.506-19.619 133.034-17.9783 132.298-15.6553 132.298-12.65 132.298-9.614 133.034-7.268 134.506-5.612 135.978-3.956 137.91-3.128 140.302-3.128 142.142-3.128 143.675-3.55733 144.902-4.416 146.128-5.27467 146.972-6.50133 147.432-8.096L151.94-8.096C151.265-5.52 149.916-3.45767 147.892-1.909 145.868-0.360333 143.338 0.414 140.302 0.414 137.91 0.414 135.786-0.122667 133.931-1.196 132.075-2.26933 130.626-3.78733 129.584-5.75 128.541-7.71267 128.02-10.0127 128.02-12.65ZM168.651 0.414C166.289 0.414 164.15-0.122667 162.234-1.196 160.317-2.26933 158.814-3.795 157.726-5.773 156.637-7.751 156.093-10.0433 156.093-12.65 156.093-15.226 156.652-17.503 157.772-19.481 158.891-21.459 160.417-22.977 162.349-24.035 164.281-25.093 166.443-25.622 168.835-25.622 171.227-25.622 173.389-25.093 175.321-24.035 177.253-22.977 178.778-21.4667 179.898-19.504 181.017-17.5413 181.577-15.2567 181.577-12.65 181.577-10.0433 181.002-7.751 179.852-5.773 178.702-3.795 177.145-2.26933 175.183-1.196 173.22-0.122667 171.043 0.414 168.651 0.414ZM168.651-3.266C170.153-3.266 171.564-3.61867 172.883-4.324 174.201-5.02933 175.267-6.08733 176.08-7.498 176.892-8.90867 177.299-10.626 177.299-12.65 177.299-14.674 176.9-16.3913 176.103-17.802 175.305-19.2127 174.263-20.263 172.975-20.953 171.687-21.643 170.291-21.988 168.789-21.988 167.255-21.988 165.852-21.643 164.58-20.953 163.307-20.263 162.287-19.2127 161.521-17.802 160.754-16.3913 160.371-14.674 160.371-12.65 160.371-10.5953 160.746-8.86267 161.498-7.452 162.249-6.04133 163.253-4.991 164.511-4.301 165.768-3.611 167.148-3.266 168.651-3.266ZM199.157-25.668C202.224-25.668 204.708-24.7403 206.609-22.885 208.511-21.0297 209.461-18.354 209.461-14.858L209.461 0 205.321 0 205.321-14.26C205.321-16.7747 204.693-18.699 203.435-20.033 202.178-21.367 200.461-22.034 198.283-22.034 196.075-22.034 194.32-21.344 193.016-19.964 191.713-18.584 191.061-16.5753 191.061-13.938L191.061 0 186.875 0 186.875-25.208 191.061-25.208 191.061-21.62C191.889-22.908 193.016-23.9047 194.442-24.61 195.868-25.3153 197.44-25.668 199.157-25.668ZM225.478-3.864 233.298-25.208 237.76-25.208 227.87 0 222.994 0 213.104-25.208 217.612-25.208ZM264.875-13.57C264.875-12.7727 264.829-11.9293 264.737-11.04L244.589-11.04C244.743-8.556 245.594-6.61633 247.142-5.221 248.691-3.82567 250.569-3.128 252.777-3.128 254.587-3.128 256.097-3.54967 257.308-4.393 258.52-5.23633 259.371-6.36333 259.861-7.774L264.369-7.774C263.695-5.35133 262.345-3.381 260.321-1.863 258.297-0.345 255.783 0.414 252.777 0.414 250.385 0.414 248.246-0.122667 246.36-1.196 244.474-2.26933 242.995-3.795 241.921-5.773 240.848-7.751 240.311-10.0433 240.311-12.65 240.311-15.2567 240.833-17.5413 241.875-19.504 242.918-21.4667 244.382-22.977 246.268-24.035 248.154-25.093 250.324-25.622 252.777-25.622 255.169-25.622 257.285-25.1007 259.125-24.058 260.965-23.0153 262.384-21.5817 263.38-19.757 264.377-17.9323 264.875-15.87 264.875-13.57ZM260.551-14.444C260.551-16.0387 260.199-17.411 259.493-18.561 258.788-19.711 257.83-20.585 256.618-21.183 255.407-21.781 254.065-22.08 252.593-22.08 250.477-22.08 248.676-21.4053 247.188-20.056 245.701-18.7067 244.85-16.836 244.635-14.444ZM274.707-21.114C275.443-22.5553 276.493-23.6747 277.858-24.472 279.223-25.2693 280.886-25.668 282.849-25.668L282.849-21.344 281.745-21.344C277.053-21.344 274.707-18.7987 274.707-13.708L274.707 0 270.521 0 270.521-25.208 274.707-25.208ZM292.815-21.758 292.815-6.9C292.815-5.67333 293.075-4.807 293.597-4.301 294.118-3.795 295.023-3.542 296.311-3.542L299.393-3.542 299.393 0 295.621 0C293.29 0 291.542-0.536667 290.377-1.61 289.211-2.68333 288.629-4.44667 288.629-6.9L288.629-21.758 285.363-21.758 285.363-25.208 288.629-25.208 288.629-31.556 292.815-31.556 292.815-25.208 299.393-25.208 299.393-21.758ZM314.719-25.622C316.897-25.622 318.806-25.1467 320.446-24.196 322.087-23.2453 323.306-22.0493 324.103-20.608L324.103-25.208 328.335-25.208 328.335 0.552C328.335 2.852 327.845 4.899 326.863 6.693 325.882 8.487 324.479 9.89 322.654 10.902 320.83 11.914 318.706 12.42 316.283 12.42 312.971 12.42 310.211 11.638 308.003 10.074 305.795 8.51 304.492 6.37867 304.093 3.68L308.233 3.68C308.693 5.21333 309.644 6.44767 311.085 7.383 312.527 8.31833 314.259 8.786 316.283 8.786 318.583 8.786 320.462 8.06533 321.918 6.624 323.375 5.18267 324.103 3.15867 324.103 0.552L324.103-4.738C323.275-3.266 322.049-2.03933 320.423-1.058 318.798-0.0766667 316.897 0.414 314.719 0.414 312.481 0.414 310.449-0.138 308.624-1.242 306.8-2.346 305.366-3.89467 304.323-5.888 303.281-7.88133 302.759-10.1507 302.759-12.696 302.759-15.272 303.281-17.5337 304.323-19.481 305.366-21.4283 306.8-22.9387 308.624-24.012 310.449-25.0853 312.481-25.622 314.719-25.622ZM324.103-12.65C324.103-14.5513 323.72-16.2073 322.953-17.618 322.187-19.0287 321.152-20.1097 319.848-20.861 318.545-21.6123 317.111-21.988 315.547-21.988 313.983-21.988 312.557-21.62 311.269-20.884 309.981-20.148 308.954-19.0747 308.187-17.664 307.421-16.2533 307.037-14.5973 307.037-12.696 307.037-10.764 307.421-9.085 308.187-7.659 308.954-6.233 309.981-5.14433 311.269-4.393 312.557-3.64167 313.983-3.266 315.547-3.266 317.111-3.266 318.545-3.64167 319.848-4.393 321.152-5.14433 322.187-6.233 322.953-7.659 323.72-9.085 324.103-10.7487 324.103-12.65ZM334.065-3.358C337.959-6.486 341.011-9.05433 343.219-11.063 345.427-13.0717 347.29-15.1723 348.808-17.365 350.326-19.5577 351.085-21.712 351.085-23.828 351.085-25.8213 350.602-27.393 349.636-28.543 348.67-29.693 347.113-30.268 344.967-30.268 342.881-30.268 341.264-29.6163 340.114-28.313 338.964-27.0097 338.343-25.2693 338.251-23.092L334.203-23.092C334.325-26.5267 335.368-29.1793 337.331-31.05 339.293-32.9207 341.823-33.856 344.921-33.856 348.079-33.856 350.586-32.982 352.442-31.234 354.297-29.486 355.225-27.0787 355.225-24.012 355.225-21.4667 354.466-18.9903 352.948-16.583 351.43-14.1757 349.705-12.0597 347.773-10.235 345.841-8.41033 343.372-6.28667 340.367-3.864L356.191-3.864 356.191-0.368 334.065-0.368ZM360.051-12.696C360.051-15.272 360.572-17.5337 361.615-19.481 362.658-21.4283 364.091-22.9387 365.916-24.012 367.741-25.0853 369.788-25.622 372.057-25.622 374.02-25.622 375.844-25.1697 377.531-24.265 379.218-23.3603 380.506-22.172 381.395-20.7L381.395-34.04 385.627-34.04 385.627 0 381.395 0 381.395-4.738C380.567-3.23533 379.34-2.001 377.715-1.035 376.09-0.069 374.188 0.414 372.011 0.414 369.772 0.414 367.741-0.138 365.916-1.242 364.091-2.346 362.658-3.89467 361.615-5.888 360.572-7.88133 360.051-10.1507 360.051-12.696ZM381.395-12.65C381.395-14.5513 381.012-16.2073 380.245-17.618 379.478-19.0287 378.443-20.1097 377.14-20.861 375.837-21.6123 374.403-21.988 372.839-21.988 371.275-21.988 369.849-21.62 368.561-20.884 367.273-20.148 366.246-19.0747 365.479-17.664 364.712-16.2533 364.329-14.5973 364.329-12.696 364.329-10.764 364.712-9.085 365.479-7.659 366.246-6.233 367.273-5.14433 368.561-4.393 369.849-3.64167 371.275-3.266 372.839-3.266 374.403-3.266 375.837-3.64167 377.14-4.393 378.443-5.14433 379.478-6.233 380.245-7.659 381.012-9.085 381.395-10.7487 381.395-12.65Z" transform="matrix(1 0 0 1 32.881 61)"/></g></g><text font-family="Poppins,Poppins_MSFontService,sans-serif" font-weight="400" font-size="46" transform="matrix(1 0 0 1 941.368 958)">videoconvertg2d</text><text fill="#0EAFE0" font-family="Poppins,Poppins_MSFontService,sans-serif" font-weight="400" font-size="41" transform="matrix(1 0 0 1 639.906 794)">1920x1080</text><text fill="#0EAFE0" font-family="Poppins,Poppins_MSFontService,sans-serif" font-weight="400" font-size="41" transform="matrix(1 0 0 1 674.281 843)">30 FPS</text><text fill="#0EAFE0" font-family="Poppins,Poppins_MSFontService,sans-serif" font-weight="400" font-size="41" transform="matrix(1 0 0 1 689.177 893)">YUY2</text><path d="M2.42005e-05-6.875 170.674-6.8744 170.674 6.8756-2.42005e-05 6.875ZM163.799-20.6244 205.049 0.000721785 163.799 20.6256Z" fill="#0EAFE0" transform="matrix(1 0 0 -1 641 916.001)"/><path d="M1693.5 751.669C1693.5 689.72 1743.72 639.5 1805.67 639.5L2254.33 639.5C2316.28 639.5 2366.5 689.72 2366.5 751.669L2366.5 1286.33C2366.5 1348.28 2316.28 1398.5 2254.33 1398.5L1805.67 1398.5C1743.72 1398.5 1693.5 1348.28 1693.5 1286.33Z" stroke="#69CA00" stroke-width="4.58333" stroke-miterlimit="8" fill="#69CA00" fill-rule="evenodd"/><path d="M2642.5 968.667C2642.5 947.588 2659.59 930.5 2680.67 930.5L2929.33 930.5C2950.41 930.5 2967.5 947.588 2967.5 968.667L2967.5 1121.33C2967.5 1142.41 2950.41 1159.5 2929.33 1159.5L2680.67 1159.5C2659.59 1159.5 2642.5 1142.41 2642.5 1121.33Z" stroke="#69CA00" stroke-width="4.58333" stroke-miterlimit="8" fill="#69CA00" fill-rule="evenodd"/><g clip-path="url(#clip20)" filter="url(#fx5)" transform="translate(2672 973)"><g><path d="M43.838-32.062 34.546 0 29.854 0 22.402-25.806 14.674 0 10.028 0.046 1.058-32.062 5.52-32.062 12.512-4.876 20.24-32.062 24.932-32.062 32.292-4.968 39.33-32.062ZM46.6655-12.696C46.6655-15.272 47.1868-17.5337 48.2295-19.481 49.2722-21.4283 50.7058-22.9387 52.5305-24.012 54.3552-25.0853 56.3868-25.622 58.6255-25.622 60.8335-25.622 62.7502-25.1467 64.3755-24.196 66.0008-23.2453 67.2122-22.0493 68.0095-20.608L68.0095-25.208 72.2415-25.208 72.2415 0 68.0095 0 68.0095-4.692C67.1815-3.22 65.9472-2.001 64.3065-1.035 62.6658-0.069 60.7568 0.414 58.5795 0.414 56.3408 0.414 54.3168-0.138 52.5075-1.242 50.6982-2.346 49.2722-3.89467 48.2295-5.888 47.1868-7.88133 46.6655-10.1507 46.6655-12.696ZM68.0095-12.65C68.0095-14.5513 67.6262-16.2073 66.8595-17.618 66.0928-19.0287 65.0578-20.1097 63.7545-20.861 62.4512-21.6123 61.0175-21.988 59.4535-21.988 57.8895-21.988 56.4635-21.62 55.1755-20.884 53.8875-20.148 52.8602-19.0747 52.0935-17.664 51.3268-16.2533 50.9435-14.5973 50.9435-12.696 50.9435-10.764 51.3268-9.085 52.0935-7.659 52.8602-6.233 53.8875-5.14433 55.1755-4.393 56.4635-3.64167 57.8895-3.266 59.4535-3.266 61.0175-3.266 62.4512-3.64167 63.7545-4.393 65.0578-5.14433 66.0928-6.233 66.8595-7.659 67.6262-9.085 68.0095-10.7487 68.0095-12.65ZM100.879-25.208 85.699 11.868 81.375 11.868 86.343-0.276 76.177-25.208 80.823-25.208 88.735-4.784 96.555-25.208ZM109.134-34.04 109.134 0 104.948 0 104.948-34.04ZM114.843-12.696C114.843-15.272 115.364-17.5337 116.407-19.481 117.449-21.4283 118.883-22.9387 120.708-24.012 122.532-25.0853 124.564-25.622 126.803-25.622 129.011-25.622 130.927-25.1467 132.553-24.196 134.178-23.2453 135.389-22.0493 136.187-20.608L136.187-25.208 140.419-25.208 140.419 0 136.187 0 136.187-4.692C135.359-3.22 134.124-2.001 132.484-1.035 130.843-0.069 128.934 0.414 126.757 0.414 124.518 0.414 122.494-0.138 120.685-1.242 118.875-2.346 117.449-3.89467 116.407-5.888 115.364-7.88133 114.843-10.1507 114.843-12.696ZM136.187-12.65C136.187-14.5513 135.803-16.2073 135.037-17.618 134.27-19.0287 133.235-20.1097 131.932-20.861 130.628-21.6123 129.195-21.988 127.631-21.988 126.067-21.988 124.641-21.62 123.353-20.884 122.065-20.148 121.037-19.0747 120.271-17.664 119.504-16.2533 119.121-14.5973 119.121-12.696 119.121-10.764 119.504-9.085 120.271-7.659 121.037-6.233 122.065-5.14433 123.353-4.393 124.641-3.64167 126.067-3.266 127.631-3.266 129.195-3.266 130.628-3.64167 131.932-4.393 133.235-5.14433 134.27-6.233 135.037-7.659 135.803-9.085 136.187-10.7487 136.187-12.65ZM159.626-25.668C162.693-25.668 165.177-24.7403 167.078-22.885 168.979-21.0297 169.93-18.354 169.93-14.858L169.93 0 165.79 0 165.79-14.26C165.79-16.7747 165.161-18.699 163.904-20.033 162.647-21.367 160.929-22.034 158.752-22.034 156.544-22.034 154.788-21.344 153.485-19.964 152.182-18.584 151.53-16.5753 151.53-13.938L151.53 0 147.344 0 147.344-25.208 151.53-25.208 151.53-21.62C152.358-22.908 153.485-23.9047 154.911-24.61 156.337-25.3153 157.909-25.668 159.626-25.668ZM174.999-12.696C174.999-15.272 175.52-17.5337 176.563-19.481 177.605-21.4283 179.039-22.9387 180.864-24.012 182.688-25.0853 184.735-25.622 187.005-25.622 188.967-25.622 190.792-25.1697 192.479-24.265 194.165-23.3603 195.453-22.172 196.343-20.7L196.343-34.04 200.575-34.04 200.575 0 196.343 0 196.343-4.738C195.515-3.23533 194.288-2.001 192.663-1.035 191.037-0.069 189.136 0.414 186.959 0.414 184.72 0.414 182.688-0.138 180.864-1.242 179.039-2.346 177.605-3.89467 176.563-5.888 175.52-7.88133 174.999-10.1507 174.999-12.696ZM196.343-12.65C196.343-14.5513 195.96-16.2073 195.193-17.618 194.426-19.0287 193.391-20.1097 192.088-20.861 190.784-21.6123 189.351-21.988 187.787-21.988 186.223-21.988 184.797-21.62 183.509-20.884 182.221-20.148 181.193-19.0747 180.427-17.664 179.66-16.2533 179.277-14.5973 179.277-12.696 179.277-10.764 179.66-9.085 180.427-7.659 181.193-6.233 182.221-5.14433 183.509-4.393 184.797-3.64167 186.223-3.266 187.787-3.266 189.351-3.266 190.784-3.64167 192.088-4.393 193.391-5.14433 194.426-6.233 195.193-7.659 195.96-9.085 196.343-10.7487 196.343-12.65Z" transform="matrix(1 0 0 1 32.9041 61)"/></g></g><text font-family="Poppins,Poppins_MSFontService,sans-serif" font-weight="400" font-size="46" transform="matrix(1 0 0 1 2702.39 1031)">Wayland </text><g clip-path="url(#clip21)" filter="url(#fx6)" transform="translate(2729 1028)"><g><path d="M13.708 0.322C11.592 0.322 9.69833-0.0536667 8.027-0.805 6.35567-1.55633 5.04467-2.599 4.094-3.933 3.14333-5.267 2.65267-6.808 2.622-8.556L7.084-8.556C7.23733-7.05333 7.85833-5.78833 8.947-4.761 10.0357-3.73367 11.6227-3.22 13.708-3.22 15.7013-3.22 17.273-3.71833 18.423-4.715 19.573-5.71167 20.148-6.992 20.148-8.556 20.148-9.78267 19.8107-10.7793 19.136-11.546 18.4613-12.3127 17.618-12.8953 16.606-13.294 15.594-13.6927 14.2293-14.122 12.512-14.582 10.396-15.134 8.70167-15.686 7.429-16.238 6.15633-16.79 5.06767-17.6563 4.163-18.837 3.25833-20.0177 2.806-21.6047 2.806-23.598 2.806-25.346 3.25067-26.8947 4.14-28.244 5.02933-29.5933 6.279-30.636 7.889-31.372 9.499-32.108 11.3467-32.476 13.432-32.476 16.4373-32.476 18.8983-31.7247 20.815-30.222 22.7317-28.7193 23.8127-26.726 24.058-24.242L19.458-24.242C19.3047-25.4687 18.6607-26.5497 17.526-27.485 16.3913-28.4203 14.8887-28.888 13.018-28.888 11.27-28.888 9.844-28.4357 8.74-27.531 7.636-26.6263 7.084-25.3613 7.084-23.736 7.084-22.5707 7.41367-21.62 8.073-20.884 8.73233-20.148 9.545-19.5883 10.511-19.205 11.477-18.8217 12.834-18.3847 14.582-17.894 16.698-17.3113 18.4-16.7363 19.688-16.169 20.976-15.6017 22.08-14.7277 23-13.547 23.92-12.3663 24.38-10.764 24.38-8.74 24.38-7.176 23.966-5.704 23.138-4.324 22.31-2.944 21.0833-1.82467 19.458-0.966 17.8327-0.107333 15.916 0.322 13.708 0.322ZM32.6311-29.302C31.8337-29.302 31.1591-29.578 30.6071-30.13 30.0551-30.682 29.7791-31.3567 29.7791-32.154 29.7791-32.9513 30.0551-33.626 30.6071-34.178 31.1591-34.73 31.8337-35.006 32.6311-35.006 33.3977-35.006 34.0494-34.73 34.5861-34.178 35.1227-33.626 35.3911-32.9513 35.3911-32.154 35.3911-31.3567 35.1227-30.682 34.5861-30.13 34.0494-29.578 33.3977-29.302 32.6311-29.302ZM34.6551-25.208 34.6551 0 30.4691 0 30.4691-25.208ZM54.2094-25.668C57.2761-25.668 59.7601-24.7403 61.6614-22.885 63.5627-21.0297 64.5134-18.354 64.5134-14.858L64.5134 0 60.3734 0 60.3734-14.26C60.3734-16.7747 59.7447-18.699 58.4874-20.033 57.2301-21.367 55.5127-22.034 53.3354-22.034 51.1274-22.034 49.3717-21.344 48.0684-19.964 46.7651-18.584 46.1134-16.5753 46.1134-13.938L46.1134 0 41.9274 0 41.9274-25.208 46.1134-25.208 46.1134-21.62C46.9414-22.908 48.0684-23.9047 49.4944-24.61 50.9204-25.3153 52.4921-25.668 54.2094-25.668ZM85.2222 0 75.3322-11.132 75.3322 0 71.1462 0 71.1462-34.04 75.3322-34.04 75.3322-14.03 85.0382-25.208 90.8802-25.208 79.0122-12.65 90.9262 0Z" transform="matrix(1 0 0 1 32.325 61)"/></g></g><text font-family="Poppins,Poppins_MSFontService,sans-serif" font-weight="400" font-size="46" transform="matrix(1 0 0 1 2758.81 1086)">Sink</text><path d="M7.40672e-06-6.875 300.609-6.87468 300.609 6.87532-7.40672e-06 6.875ZM293.734-20.6247 334.984 0.000360892 293.734 20.6253Z" fill="#0EAFE0" transform="matrix(1 0 0 -1 1426 916)"/><path d="M2080.5 1014C2080.5 1005.44 2087.44 998.5 2096 998.5L2313 998.5C2321.56 998.5 2328.5 1005.44 2328.5 1014L2328.5 1076C2328.5 1084.56 2321.56 1091.5 2313 1091.5L2096 1091.5C2087.44 1091.5 2080.5 1084.56 2080.5 1076Z" stroke="#000000" stroke-width="4.58333" stroke-linecap="square" stroke-miterlimit="8" stroke-dasharray="13.75 4.58333" fill="none" fill-rule="evenodd"/><g clip-path="url(#clip22)" filter="url(#fx7)" transform="translate(2138 1001)"><g><path d="M13.708 0.322C11.592 0.322 9.69833-0.0536667 8.027-0.805 6.35567-1.55633 5.04467-2.599 4.094-3.933 3.14333-5.267 2.65267-6.808 2.622-8.556L7.084-8.556C7.23733-7.05333 7.85833-5.78833 8.947-4.761 10.0357-3.73367 11.6227-3.22 13.708-3.22 15.7013-3.22 17.273-3.71833 18.423-4.715 19.573-5.71167 20.148-6.992 20.148-8.556 20.148-9.78267 19.8107-10.7793 19.136-11.546 18.4613-12.3127 17.618-12.8953 16.606-13.294 15.594-13.6927 14.2293-14.122 12.512-14.582 10.396-15.134 8.70167-15.686 7.429-16.238 6.15633-16.79 5.06767-17.6563 4.163-18.837 3.25833-20.0177 2.806-21.6047 2.806-23.598 2.806-25.346 3.25067-26.8947 4.14-28.244 5.02933-29.5933 6.279-30.636 7.889-31.372 9.499-32.108 11.3467-32.476 13.432-32.476 16.4373-32.476 18.8983-31.7247 20.815-30.222 22.7317-28.7193 23.8127-26.726 24.058-24.242L19.458-24.242C19.3047-25.4687 18.6607-26.5497 17.526-27.485 16.3913-28.4203 14.8887-28.888 13.018-28.888 11.27-28.888 9.844-28.4357 8.74-27.531 7.636-26.6263 7.084-25.3613 7.084-23.736 7.084-22.5707 7.41367-21.62 8.073-20.884 8.73233-20.148 9.545-19.5883 10.511-19.205 11.477-18.8217 12.834-18.3847 14.582-17.894 16.698-17.3113 18.4-16.7363 19.688-16.169 20.976-15.6017 22.08-14.7277 23-13.547 23.92-12.3663 24.38-10.764 24.38-8.74 24.38-7.176 23.966-5.704 23.138-4.324 22.31-2.944 21.0833-1.82467 19.458-0.966 17.8327-0.107333 15.916 0.322 13.708 0.322ZM34.6551-21.114C35.3911-22.5553 36.4414-23.6747 37.8061-24.472 39.1707-25.2693 40.8344-25.668 42.7971-25.668L42.7971-21.344 41.6931-21.344C37.0011-21.344 34.6551-18.7987 34.6551-13.708L34.6551 0 30.4691 0 30.4691-25.208 34.6551-25.208ZM46.0926-12.65C46.0926-15.2567 46.6139-17.5337 47.6566-19.481 48.6992-21.4283 50.1482-22.9387 52.0036-24.012 53.8589-25.0853 55.9826-25.622 58.3746-25.622 61.4719-25.622 64.0249-24.8707 66.0336-23.368 68.0422-21.8653 69.3686-19.78 70.0126-17.112L65.5046-17.112C65.0752-18.6453 64.2396-19.8567 62.9976-20.746 61.7556-21.6353 60.2146-22.08 58.3746-22.08 55.9826-22.08 54.0506-21.2597 52.5786-19.619 51.1066-17.9783 50.3706-15.6553 50.3706-12.65 50.3706-9.614 51.1066-7.268 52.5786-5.612 54.0506-3.956 55.9826-3.128 58.3746-3.128 60.2146-3.128 61.7479-3.55733 62.9746-4.416 64.2012-5.27467 65.0446-6.50133 65.5046-8.096L70.0126-8.096C69.3379-5.52 67.9886-3.45767 65.9646-1.909 63.9406-0.360333 61.4106 0.414 58.3746 0.414 55.9826 0.414 53.8589-0.122667 52.0036-1.196 50.1482-2.26933 48.6992-3.78733 47.6566-5.75 46.6139-7.71267 46.0926-10.0127 46.0926-12.65Z" transform="matrix(1 0 0 1 32.1611 60)"/></g></g><text font-family="Poppins,Poppins_MSFontService,sans-serif" font-weight="400" font-size="46" transform="matrix(1 0 0 1 2167.65 1059)">Src</text><path d="M1761.5 886C1761.5 877.44 1768.44 870.5 1777 870.5L1994 870.5C2002.56 870.5 2009.5 877.44 2009.5 886L2009.5 947.999C2009.5 956.56 2002.56 963.5 1994 963.5L1777 963.5C1768.44 963.5 1761.5 956.56 1761.5 947.999Z" stroke="#000000" stroke-width="4.58333" stroke-linecap="square" stroke-miterlimit="8" stroke-dasharray="13.75 4.58333" fill="none" fill-rule="evenodd"/><g clip-path="url(#clip23)" filter="url(#fx8)" transform="translate(1778 873)"><g><path d="M13.708 0.322C11.592 0.322 9.69833-0.0536667 8.027-0.805 6.35567-1.55633 5.04467-2.599 4.094-3.933 3.14333-5.267 2.65267-6.808 2.622-8.556L7.084-8.556C7.23733-7.05333 7.85833-5.78833 8.947-4.761 10.0357-3.73367 11.6227-3.22 13.708-3.22 15.7013-3.22 17.273-3.71833 18.423-4.715 19.573-5.71167 20.148-6.992 20.148-8.556 20.148-9.78267 19.8107-10.7793 19.136-11.546 18.4613-12.3127 17.618-12.8953 16.606-13.294 15.594-13.6927 14.2293-14.122 12.512-14.582 10.396-15.134 8.70167-15.686 7.429-16.238 6.15633-16.79 5.06767-17.6563 4.163-18.837 3.25833-20.0177 2.806-21.6047 2.806-23.598 2.806-25.346 3.25067-26.8947 4.14-28.244 5.02933-29.5933 6.279-30.636 7.889-31.372 9.499-32.108 11.3467-32.476 13.432-32.476 16.4373-32.476 18.8983-31.7247 20.815-30.222 22.7317-28.7193 23.8127-26.726 24.058-24.242L19.458-24.242C19.3047-25.4687 18.6607-26.5497 17.526-27.485 16.3913-28.4203 14.8887-28.888 13.018-28.888 11.27-28.888 9.844-28.4357 8.74-27.531 7.636-26.6263 7.084-25.3613 7.084-23.736 7.084-22.5707 7.41367-21.62 8.073-20.884 8.73233-20.148 9.545-19.5883 10.511-19.205 11.477-18.8217 12.834-18.3847 14.582-17.894 16.698-17.3113 18.4-16.7363 19.688-16.169 20.976-15.6017 22.08-14.7277 23-13.547 23.92-12.3663 24.38-10.764 24.38-8.74 24.38-7.176 23.966-5.704 23.138-4.324 22.31-2.944 21.0833-1.82467 19.458-0.966 17.8327-0.107333 15.916 0.322 13.708 0.322ZM32.6311-29.302C31.8337-29.302 31.1591-29.578 30.6071-30.13 30.0551-30.682 29.7791-31.3567 29.7791-32.154 29.7791-32.9513 30.0551-33.626 30.6071-34.178 31.1591-34.73 31.8337-35.006 32.6311-35.006 33.3977-35.006 34.0494-34.73 34.5861-34.178 35.1227-33.626 35.3911-32.9513 35.3911-32.154 35.3911-31.3567 35.1227-30.682 34.5861-30.13 34.0494-29.578 33.3977-29.302 32.6311-29.302ZM34.6551-25.208 34.6551 0 30.4691 0 30.4691-25.208ZM54.2094-25.668C57.2761-25.668 59.7601-24.7403 61.6614-22.885 63.5627-21.0297 64.5134-18.354 64.5134-14.858L64.5134 0 60.3734 0 60.3734-14.26C60.3734-16.7747 59.7447-18.699 58.4874-20.033 57.2301-21.367 55.5127-22.034 53.3354-22.034 51.1274-22.034 49.3717-21.344 48.0684-19.964 46.7651-18.584 46.1134-16.5753 46.1134-13.938L46.1134 0 41.9274 0 41.9274-25.208 46.1134-25.208 46.1134-21.62C46.9414-22.908 48.0684-23.9047 49.4944-24.61 50.9204-25.3153 52.4921-25.668 54.2094-25.668ZM85.2222 0 75.3322-11.132 75.3322 0 71.1462 0 71.1462-34.04 75.3322-34.04 75.3322-14.03 85.0382-25.208 90.8802-25.208 79.0122-12.65 90.9262 0ZM120.396 1.748 120.396 5.612 95.9238 5.612 95.9238 1.748ZM127.748-16.974C127.748-22.2487 128.606-26.3657 130.324-29.325 132.041-32.2843 135.046-33.764 139.34-33.764 143.602-33.764 146.592-32.2843 148.31-29.325 150.027-26.3657 150.886-22.2487 150.886-16.974 150.886-11.6073 150.027-7.43667 148.31-4.462 146.592-1.48733 143.602 0 139.34 0 135.046 0 132.041-1.48733 130.324-4.462 128.606-7.43667 127.748-11.6073 127.748-16.974ZM146.746-16.974C146.746-19.642 146.569-21.9037 146.217-23.759 145.864-25.6143 145.143-27.1093 144.055-28.244 142.966-29.3787 141.395-29.946 139.34-29.946 137.254-29.946 135.667-29.3787 134.579-28.244 133.49-27.1093 132.769-25.6143 132.417-23.759 132.064-21.9037 131.888-19.642 131.888-16.974 131.888-14.214 132.064-11.8987 132.417-10.028 132.769-8.15733 133.49-6.65467 134.579-5.52 135.667-4.38533 137.254-3.818 139.34-3.818 141.395-3.818 142.966-4.38533 144.055-5.52 145.143-6.65467 145.864-8.15733 146.217-10.028 146.569-11.8987 146.746-14.214 146.746-16.974Z" transform="matrix(1 0 0 1 32.5752 60)"/></g></g><text font-family="Poppins,Poppins_MSFontService,sans-serif" font-weight="400" font-size="46" transform="matrix(1 0 0 1 1808.06 931)">Sink_0</text><path d="M1761.5 1196C1761.5 1187.44 1768.44 1180.5 1777 1180.5L1994 1180.5C2002.56 1180.5 2009.5 1187.44 2009.5 1196L2009.5 1258C2009.5 1266.56 2002.56 1273.5 1994 1273.5L1777 1273.5C1768.44 1273.5 1761.5 1266.56 1761.5 1258Z" stroke="#000000" stroke-width="4.58333" stroke-linecap="square" stroke-miterlimit="8" stroke-dasharray="13.75 4.58333" fill="none" fill-rule="evenodd"/><g clip-path="url(#clip24)" filter="url(#fx9)" transform="translate(1785 1182)"><g><path d="M13.708 0.322C11.592 0.322 9.69833-0.0536667 8.027-0.805 6.35567-1.55633 5.04467-2.599 4.094-3.933 3.14333-5.267 2.65267-6.808 2.622-8.556L7.084-8.556C7.23733-7.05333 7.85833-5.78833 8.947-4.761 10.0357-3.73367 11.6227-3.22 13.708-3.22 15.7013-3.22 17.273-3.71833 18.423-4.715 19.573-5.71167 20.148-6.992 20.148-8.556 20.148-9.78267 19.8107-10.7793 19.136-11.546 18.4613-12.3127 17.618-12.8953 16.606-13.294 15.594-13.6927 14.2293-14.122 12.512-14.582 10.396-15.134 8.70167-15.686 7.429-16.238 6.15633-16.79 5.06767-17.6563 4.163-18.837 3.25833-20.0177 2.806-21.6047 2.806-23.598 2.806-25.346 3.25067-26.8947 4.14-28.244 5.02933-29.5933 6.279-30.636 7.889-31.372 9.499-32.108 11.3467-32.476 13.432-32.476 16.4373-32.476 18.8983-31.7247 20.815-30.222 22.7317-28.7193 23.8127-26.726 24.058-24.242L19.458-24.242C19.3047-25.4687 18.6607-26.5497 17.526-27.485 16.3913-28.4203 14.8887-28.888 13.018-28.888 11.27-28.888 9.844-28.4357 8.74-27.531 7.636-26.6263 7.084-25.3613 7.084-23.736 7.084-22.5707 7.41367-21.62 8.073-20.884 8.73233-20.148 9.545-19.5883 10.511-19.205 11.477-18.8217 12.834-18.3847 14.582-17.894 16.698-17.3113 18.4-16.7363 19.688-16.169 20.976-15.6017 22.08-14.7277 23-13.547 23.92-12.3663 24.38-10.764 24.38-8.74 24.38-7.176 23.966-5.704 23.138-4.324 22.31-2.944 21.0833-1.82467 19.458-0.966 17.8327-0.107333 15.916 0.322 13.708 0.322ZM32.6311-29.302C31.8337-29.302 31.1591-29.578 30.6071-30.13 30.0551-30.682 29.7791-31.3567 29.7791-32.154 29.7791-32.9513 30.0551-33.626 30.6071-34.178 31.1591-34.73 31.8337-35.006 32.6311-35.006 33.3977-35.006 34.0494-34.73 34.5861-34.178 35.1227-33.626 35.3911-32.9513 35.3911-32.154 35.3911-31.3567 35.1227-30.682 34.5861-30.13 34.0494-29.578 33.3977-29.302 32.6311-29.302ZM34.6551-25.208 34.6551 0 30.4691 0 30.4691-25.208ZM54.2094-25.668C57.2761-25.668 59.7601-24.7403 61.6614-22.885 63.5627-21.0297 64.5134-18.354 64.5134-14.858L64.5134 0 60.3734 0 60.3734-14.26C60.3734-16.7747 59.7447-18.699 58.4874-20.033 57.2301-21.367 55.5127-22.034 53.3354-22.034 51.1274-22.034 49.3717-21.344 48.0684-19.964 46.7651-18.584 46.1134-16.5753 46.1134-13.938L46.1134 0 41.9274 0 41.9274-25.208 46.1134-25.208 46.1134-21.62C46.9414-22.908 48.0684-23.9047 49.4944-24.61 50.9204-25.3153 52.4921-25.668 54.2094-25.668ZM85.2222 0 75.3322-11.132 75.3322 0 71.1462 0 71.1462-34.04 75.3322-34.04 75.3322-14.03 85.0382-25.208 90.8802-25.208 79.0122-12.65 90.9262 0ZM120.396 1.748 120.396 5.612 95.9238 5.612 95.9238 1.748ZM126.644-29.44 126.644-33.258 135.292-33.258 135.292 0 131.06 0 131.06-29.44Z" transform="matrix(1 0 0 1 32.4502 61)"/></g></g><text font-family="Poppins,Poppins_MSFontService,sans-serif" font-weight="400" font-size="46" transform="matrix(1 0 0 1 1814.94 1241)">Sink_1</text><g clip-path="url(#clip25)" filter="url(#fx10)" transform="translate(1947 648)"><g><path d="M5.704-29.302C4.90667-29.302 4.232-29.578 3.68-30.13 3.128-30.682 2.852-31.3567 2.852-32.154 2.852-32.9513 3.128-33.626 3.68-34.178 4.232-34.73 4.90667-35.006 5.704-35.006 6.47067-35.006 7.12233-34.73 7.659-34.178 8.19567-33.626 8.464-32.9513 8.464-32.154 8.464-31.3567 8.19567-30.682 7.659-30.13 7.12233-29.578 6.47067-29.302 5.704-29.302ZM7.728-25.208 7.728 0 3.542 0 3.542-25.208ZM45.3143-25.668C47.277-25.668 49.025-25.2617 50.5583-24.449 52.0917-23.6363 53.303-22.4173 54.1923-20.792 55.0817-19.1667 55.5263-17.1887 55.5263-14.858L55.5263 0 51.3863 0 51.3863-14.26C51.3863-16.7747 50.7653-18.699 49.5233-20.033 48.2813-21.367 46.6023-22.034 44.4863-22.034 42.309-22.034 40.5763-21.3363 39.2883-19.941 38.0003-18.5457 37.3563-16.5293 37.3563-13.892L37.3563 0 33.2163 0 33.2163-14.26C33.2163-16.7747 32.5953-18.699 31.3533-20.033 30.1113-21.367 28.4323-22.034 26.3163-22.034 24.139-22.034 22.4063-21.3363 21.1183-19.941 19.8303-18.5457 19.1863-16.5293 19.1863-13.892L19.1863 0 15.0003 0 15.0003-25.208 19.1863-25.208 19.1863-21.574C20.0143-22.8927 21.126-23.9047 22.5213-24.61 23.9167-25.3153 25.4577-25.668 27.1443-25.668 29.2603-25.668 31.131-25.1927 32.7563-24.242 34.3817-23.2913 35.593-21.896 36.3903-20.056 37.0957-21.8347 38.261-23.2147 39.8863-24.196 41.5117-25.1773 43.321-25.668 45.3143-25.668ZM75.1355 0 69.1555-9.384 63.4055 0 59.0355 0 67.1775-12.512 59.0355-25.208 63.7735-25.208 69.7535-15.87 75.4575-25.208 79.8275-25.208 71.7315-12.742 79.8735 0Z" transform="matrix(1 0 0 1 32.6614 61)"/></g></g><text font-family="Poppins,Poppins_MSFontService,sans-serif" font-weight="400" font-size="46" transform="matrix(1 0 0 1 1977.15 706)">imx</text><g clip-path="url(#clip26)" filter="url(#fx11)" transform="translate(2027 648)"><g><path d="M21.022-18.63 21.022-15.088 2.668-15.088 2.668-18.63Z" transform="matrix(1 0 0 1 32.8696 61)"/></g></g><text font-family="Poppins,Poppins_MSFontService,sans-serif" font-weight="400" font-size="46" transform="matrix(1 0 0 1 2057.36 706)">-</text><g clip-path="url(#clip27)" filter="url(#fx12)" transform="translate(1824 703)"><g><path d="M1.978-12.65C1.978-15.2567 2.49933-17.5337 3.542-19.481 4.58467-21.4283 6.03367-22.9387 7.889-24.012 9.74433-25.0853 11.868-25.622 14.26-25.622 17.3573-25.622 19.9103-24.8707 21.919-23.368 23.9277-21.8653 25.254-19.78 25.898-17.112L21.39-17.112C20.9607-18.6453 20.125-19.8567 18.883-20.746 17.641-21.6353 16.1-22.08 14.26-22.08 11.868-22.08 9.936-21.2597 8.464-19.619 6.992-17.9783 6.256-15.6553 6.256-12.65 6.256-9.614 6.992-7.268 8.464-5.612 9.936-3.956 11.868-3.128 14.26-3.128 16.1-3.128 17.6333-3.55733 18.86-4.416 20.0867-5.27467 20.93-6.50133 21.39-8.096L25.898-8.096C25.2233-5.52 23.874-3.45767 21.85-1.909 19.826-0.360333 17.296 0.414 14.26 0.414 11.868 0.414 9.74433-0.122667 7.889-1.196 6.03367-2.26933 4.58467-3.78733 3.542-5.75 2.49933-7.71267 1.978-10.0127 1.978-12.65ZM42.6089 0.414C40.2476 0.414 38.1086-0.122667 36.1919-1.196 34.2752-2.26933 32.7726-3.795 31.6839-5.773 30.5952-7.751 30.0509-10.0433 30.0509-12.65 30.0509-15.226 30.6106-17.503 31.7299-19.481 32.8493-21.459 34.3749-22.977 36.3069-24.035 38.2389-25.093 40.4009-25.622 42.7929-25.622 45.1849-25.622 47.3469-25.093 49.2789-24.035 51.2109-22.977 52.7366-21.4667 53.8559-19.504 54.9752-17.5413 55.5349-15.2567 55.5349-12.65 55.5349-10.0433 54.9599-7.751 53.8099-5.773 52.6599-3.795 51.1036-2.26933 49.1409-1.196 47.1782-0.122667 45.0009 0.414 42.6089 0.414ZM42.6089-3.266C44.1116-3.266 45.5222-3.61867 46.8409-4.324 48.1596-5.02933 49.2252-6.08733 50.0379-7.498 50.8506-8.90867 51.2569-10.626 51.2569-12.65 51.2569-14.674 50.8582-16.3913 50.0609-17.802 49.2636-19.2127 48.2209-20.263 46.9329-20.953 45.6449-21.643 44.2496-21.988 42.7469-21.988 41.2136-21.988 39.8106-21.643 38.5379-20.953 37.2652-20.263 36.2456-19.2127 35.4789-17.802 34.7122-16.3913 34.3289-14.674 34.3289-12.65 34.3289-10.5953 34.7046-8.86267 35.4559-7.452 36.2072-6.04133 37.2116-4.991 38.4689-4.301 39.7262-3.611 41.1062-3.266 42.6089-3.266ZM91.1477-25.668C93.1103-25.668 94.8583-25.2617 96.3917-24.449 97.925-23.6363 99.1363-22.4173 100.026-20.792 100.915-19.1667 101.36-17.1887 101.36-14.858L101.36 0 97.2197 0 97.2197-14.26C97.2197-16.7747 96.5987-18.699 95.3567-20.033 94.1147-21.367 92.4357-22.034 90.3197-22.034 88.1423-22.034 86.4097-21.3363 85.1217-19.941 83.8337-18.5457 83.1897-16.5293 83.1897-13.892L83.1897 0 79.0497 0 79.0497-14.26C79.0497-16.7747 78.4287-18.699 77.1867-20.033 75.9447-21.367 74.2657-22.034 72.1497-22.034 69.9723-22.034 68.2397-21.3363 66.9517-19.941 65.6637-18.5457 65.0197-16.5293 65.0197-13.892L65.0197 0 60.8337 0 60.8337-25.208 65.0197-25.208 65.0197-21.574C65.8477-22.8927 66.9593-23.9047 68.3547-24.61 69.75-25.3153 71.291-25.668 72.9777-25.668 75.0937-25.668 76.9643-25.1927 78.5897-24.242 80.215-23.2913 81.4263-21.896 82.2237-20.056 82.929-21.8347 84.0943-23.2147 85.7197-24.196 87.345-25.1773 89.1543-25.668 91.1477-25.668ZM111.999-20.562C112.827-22.0033 114.061-23.207 115.702-24.173 117.342-25.139 119.251-25.622 121.429-25.622 123.667-25.622 125.699-25.0853 127.524-24.012 129.348-22.9387 130.782-21.4283 131.825-19.481 132.867-17.5337 133.389-15.272 133.389-12.696 133.389-10.1507 132.867-7.88133 131.825-5.888 130.782-3.89467 129.348-2.346 127.524-1.242 125.699-0.138 123.667 0.414 121.429 0.414 119.282 0.414 117.388-0.069 115.748-1.035 114.107-2.001 112.857-3.20467 111.999-4.646L111.999 11.96 107.813 11.96 107.813-25.208 111.999-25.208ZM129.111-12.696C129.111-14.5973 128.727-16.2533 127.961-17.664 127.194-19.0747 126.159-20.148 124.856-20.884 123.552-21.62 122.119-21.988 120.555-21.988 119.021-21.988 117.603-21.6123 116.3-20.861 114.996-20.1097 113.954-19.021 113.172-17.595 112.39-16.169 111.999-14.5207 111.999-12.65 111.999-10.7487 112.39-9.085 113.172-7.659 113.954-6.233 114.996-5.14433 116.3-4.393 117.603-3.64167 119.021-3.266 120.555-3.266 122.119-3.266 123.552-3.64167 124.856-4.393 126.159-5.14433 127.194-6.233 127.961-7.659 128.727-9.085 129.111-10.764 129.111-12.696ZM149.744 0.414C147.383 0.414 145.244-0.122667 143.327-1.196 141.411-2.26933 139.908-3.795 138.819-5.773 137.731-7.751 137.186-10.0433 137.186-12.65 137.186-15.226 137.746-17.503 138.865-19.481 139.985-21.459 141.51-22.977 143.442-24.035 145.374-25.093 147.536-25.622 149.928-25.622 152.32-25.622 154.482-25.093 156.414-24.035 158.346-22.977 159.872-21.4667 160.991-19.504 162.111-17.5413 162.67-15.2567 162.67-12.65 162.67-10.0433 162.095-7.751 160.945-5.773 159.795-3.795 158.239-2.26933 156.276-1.196 154.314-0.122667 152.136 0.414 149.744 0.414ZM149.744-3.266C151.247-3.266 152.658-3.61867 153.976-4.324 155.295-5.02933 156.361-6.08733 157.173-7.498 157.986-8.90867 158.392-10.626 158.392-12.65 158.392-14.674 157.994-16.3913 157.196-17.802 156.399-19.2127 155.356-20.263 154.068-20.953 152.78-21.643 151.385-21.988 149.882-21.988 148.349-21.988 146.946-21.643 145.673-20.953 144.401-20.263 143.381-19.2127 142.614-17.802 141.848-16.3913 141.464-14.674 141.464-12.65 141.464-10.5953 141.84-8.86267 142.591-7.452 143.343-6.04133 144.347-4.991 145.604-4.301 146.862-3.611 148.242-3.266 149.744-3.266ZM176.893 0.414C174.961 0.414 173.228 0.0843333 171.695-0.575 170.162-1.23433 168.95-2.15433 168.061-3.335 167.172-4.51567 166.681-5.87267 166.589-7.406L170.913-7.406C171.036-6.14867 171.626-5.12133 172.684-4.324 173.742-3.52667 175.13-3.128 176.847-3.128 178.442-3.128 179.699-3.48067 180.619-4.186 181.539-4.89133 181.999-5.78067 181.999-6.854 181.999-7.958 181.508-8.77833 180.527-9.315 179.546-9.85167 178.028-10.3807 175.973-10.902 174.102-11.3927 172.577-11.891 171.396-12.397 170.215-12.903 169.203-13.6543 168.36-14.651 167.517-15.6477 167.095-16.9587 167.095-18.584 167.095-19.872 167.478-21.0527 168.245-22.126 169.012-23.1993 170.1-24.0503 171.511-24.679 172.922-25.3077 174.532-25.622 176.341-25.622 179.132-25.622 181.386-24.9167 183.103-23.506 184.82-22.0953 185.74-20.1633 185.863-17.71L181.677-17.71C181.585-19.0287 181.056-20.0867 180.09-20.884 179.124-21.6813 177.828-22.08 176.203-22.08 174.7-22.08 173.504-21.758 172.615-21.114 171.726-20.47 171.281-19.6267 171.281-18.584 171.281-17.756 171.549-17.0737 172.086-16.537 172.623-16.0003 173.297-15.571 174.11-15.249 174.923-14.927 176.05-14.5667 177.491-14.168 179.3-13.6773 180.772-13.1943 181.907-12.719 183.042-12.2437 184.015-11.5307 184.828-10.58 185.641-9.62933 186.062-8.38733 186.093-6.854 186.093-5.474 185.71-4.232 184.943-3.128 184.176-2.024 183.095-1.15767 181.7-0.529 180.305 0.0996666 178.702 0.414 176.893 0.414ZM194.194-29.302C193.396-29.302 192.722-29.578 192.17-30.13 191.618-30.682 191.342-31.3567 191.342-32.154 191.342-32.9513 191.618-33.626 192.17-34.178 192.722-34.73 193.396-35.006 194.194-35.006 194.96-35.006 195.612-34.73 196.149-34.178 196.685-33.626 196.954-32.9513 196.954-32.154 196.954-31.3567 196.685-30.682 196.149-30.13 195.612-29.578 194.96-29.302 194.194-29.302ZM196.218-25.208 196.218 0 192.032 0 192.032-25.208ZM208.596-21.758 208.596-6.9C208.596-5.67333 208.857-4.807 209.378-4.301 209.899-3.795 210.804-3.542 212.092-3.542L215.174-3.542 215.174 0 211.402 0C209.071 0 207.323-0.536667 206.158-1.61 204.993-2.68333 204.41-4.44667 204.41-6.9L204.41-21.758 201.144-21.758 201.144-25.208 204.41-25.208 204.41-31.556 208.596-31.556 208.596-25.208 215.174-25.208 215.174-21.758ZM231.098 0.414C228.737 0.414 226.598-0.122667 224.681-1.196 222.765-2.26933 221.262-3.795 220.173-5.773 219.085-7.751 218.54-10.0433 218.54-12.65 218.54-15.226 219.1-17.503 220.219-19.481 221.339-21.459 222.864-22.977 224.796-24.035 226.728-25.093 228.89-25.622 231.282-25.622 233.674-25.622 235.836-25.093 237.768-24.035 239.7-22.977 241.226-21.4667 242.345-19.504 243.465-17.5413 244.024-15.2567 244.024-12.65 244.024-10.0433 243.449-7.751 242.299-5.773 241.149-3.795 239.593-2.26933 237.63-1.196 235.668-0.122667 233.49 0.414 231.098 0.414ZM231.098-3.266C232.601-3.266 234.012-3.61867 235.33-4.324 236.649-5.02933 237.715-6.08733 238.527-7.498 239.34-8.90867 239.746-10.626 239.746-12.65 239.746-14.674 239.348-16.3913 238.55-17.802 237.753-19.2127 236.71-20.263 235.422-20.953 234.134-21.643 232.739-21.988 231.236-21.988 229.703-21.988 228.3-21.643 227.027-20.953 225.755-20.263 224.735-19.2127 223.968-17.802 223.202-16.3913 222.818-14.674 222.818-12.65 222.818-10.5953 223.194-8.86267 223.945-7.452 224.697-6.04133 225.701-4.991 226.958-4.301 228.216-3.611 229.596-3.266 231.098-3.266ZM253.509-21.114C254.245-22.5553 255.296-23.6747 256.66-24.472 258.025-25.2693 259.689-25.668 261.651-25.668L261.651-21.344 260.547-21.344C255.855-21.344 253.509-18.7987 253.509-13.708L253.509 0 249.323 0 249.323-25.208 253.509-25.208ZM276.907-25.622C279.084-25.622 280.993-25.1467 282.634-24.196 284.274-23.2453 285.493-22.0493 286.291-20.608L286.291-25.208 290.523-25.208 290.523 0.552C290.523 2.852 290.032 4.899 289.051 6.693 288.069 8.487 286.666 9.89 284.842 10.902 283.017 11.914 280.893 12.42 278.471 12.42 275.159 12.42 272.399 11.638 270.191 10.074 267.983 8.51 266.679 6.37867 266.281 3.68L270.421 3.68C270.881 5.21333 271.831 6.44767 273.273 7.383 274.714 8.31833 276.447 8.786 278.471 8.786 280.771 8.786 282.649 8.06533 284.106 6.624 285.562 5.18267 286.291 3.15867 286.291 0.552L286.291-4.738C285.463-3.266 284.236-2.03933 282.611-1.058 280.985-0.0766667 279.084 0.414 276.907 0.414 274.668 0.414 272.636-0.138 270.812-1.242 268.987-2.346 267.553-3.89467 266.511-5.888 265.468-7.88133 264.947-10.1507 264.947-12.696 264.947-15.272 265.468-17.5337 266.511-19.481 267.553-21.4283 268.987-22.9387 270.812-24.012 272.636-25.0853 274.668-25.622 276.907-25.622ZM286.291-12.65C286.291-14.5513 285.907-16.2073 285.141-17.618 284.374-19.0287 283.339-20.1097 282.036-20.861 280.732-21.6123 279.299-21.988 277.735-21.988 276.171-21.988 274.745-21.62 273.457-20.884 272.169-20.148 271.141-19.0747 270.375-17.664 269.608-16.2533 269.225-14.5973 269.225-12.696 269.225-10.764 269.608-9.085 270.375-7.659 271.141-6.233 272.169-5.14433 273.457-4.393 274.745-3.64167 276.171-3.266 277.735-3.266 279.299-3.266 280.732-3.64167 282.036-4.393 283.339-5.14433 284.374-6.233 285.141-7.659 285.907-9.085 286.291-10.7487 286.291-12.65ZM296.252-3.358C300.147-6.486 303.198-9.05433 305.406-11.063 307.614-13.0717 309.477-15.1723 310.995-17.365 312.513-19.5577 313.272-21.712 313.272-23.828 313.272-25.8213 312.789-27.393 311.823-28.543 310.857-29.693 309.301-30.268 307.154-30.268 305.069-30.268 303.451-29.6163 302.301-28.313 301.151-27.0097 300.53-25.2693 300.438-23.092L296.39-23.092C296.513-26.5267 297.556-29.1793 299.518-31.05 301.481-32.9207 304.011-33.856 307.108-33.856 310.267-33.856 312.774-32.982 314.629-31.234 316.485-29.486 317.412-27.0787 317.412-24.012 317.412-21.4667 316.653-18.9903 315.135-16.583 313.617-14.1757 311.892-12.0597 309.96-10.235 308.028-8.41033 305.56-6.28667 302.554-3.864L318.378-3.864 318.378-0.368 296.252-0.368ZM322.238-12.696C322.238-15.272 322.76-17.5337 323.802-19.481 324.845-21.4283 326.279-22.9387 328.103-24.012 329.928-25.0853 331.975-25.622 334.244-25.622 336.207-25.622 338.032-25.1697 339.718-24.265 341.405-23.3603 342.693-22.172 343.582-20.7L343.582-34.04 347.814-34.04 347.814 0 343.582 0 343.582-4.738C342.754-3.23533 341.528-2.001 339.902-1.035 338.277-0.069 336.376 0.414 334.198 0.414 331.96 0.414 329.928-0.138 328.103-1.242 326.279-2.346 324.845-3.89467 323.802-5.888 322.76-7.88133 322.238-10.1507 322.238-12.696ZM343.582-12.65C343.582-14.5513 343.199-16.2073 342.432-17.618 341.666-19.0287 340.631-20.1097 339.327-20.861 338.024-21.6123 336.59-21.988 335.026-21.988 333.462-21.988 332.036-21.62 330.748-20.884 329.46-20.148 328.433-19.0747 327.666-17.664 326.9-16.2533 326.516-14.5973 326.516-12.696 326.516-10.764 326.9-9.085 327.666-7.659 328.433-6.233 329.46-5.14433 330.748-4.393 332.036-3.64167 333.462-3.266 335.026-3.266 336.59-3.266 338.024-3.64167 339.327-4.393 340.631-5.14433 341.666-6.233 342.432-7.659 343.199-9.085 343.582-10.7487 343.582-12.65Z" transform="matrix(1 0 0 1 32.7822 61)"/></g></g><text font-family="Poppins,Poppins_MSFontService,sans-serif" font-weight="400" font-size="46" transform="matrix(1 0 0 1 1854.27 761)">compositorg2d</text><text fill="#0EAFE0" font-family="Poppins,Poppins_MSFontService,sans-serif" font-weight="400" font-size="41" transform="matrix(1 0 0 1 1403.7 1098)">640x480</text><text fill="#0EAFE0" font-family="Poppins,Poppins_MSFontService,sans-serif" font-weight="400" font-size="41" transform="matrix(1 0 0 1 1426.34 1147)">30 FPS</text><text fill="#0EAFE0" font-family="Poppins,Poppins_MSFontService,sans-serif" font-weight="400" font-size="41" transform="matrix(1 0 0 1 1441.23 1197)">YUY2</text><text fill="#0EAFE0" font-family="Poppins,Poppins_MSFontService,sans-serif" font-weight="400" font-size="41" transform="matrix(1 0 0 1 1440.4 794)">1920x1080</text><text fill="#0EAFE0" font-family="Poppins,Poppins_MSFontService,sans-serif" font-weight="400" font-size="41" transform="matrix(1 0 0 1 1474.78 843)">30 FPS</text><text fill="#0EAFE0" font-family="Poppins,Poppins_MSFontService,sans-serif" font-weight="400" font-size="41" transform="matrix(1 0 0 1 1488.53 893)">RGBx</text><text fill="#0EAFE0" font-family="Poppins,Poppins_MSFontService,sans-serif" font-weight="400" font-size="41" transform="matrix(1 0 0 1 2398.5 924)">1920x1080</text><text fill="#0EAFE0" font-family="Poppins,Poppins_MSFontService,sans-serif" font-weight="400" font-size="41" transform="matrix(1 0 0 1 2432.87 973)">30 FPS</text><text fill="#0EAFE0" font-family="Poppins,Poppins_MSFontService,sans-serif" font-weight="400" font-size="41" transform="matrix(1 0 0 1 2446.62 1023)">BGRx</text><path d="M0.000978516-6.875 280.042-6.83514 280.04 6.91486-0.000978516 6.875ZM273.169-20.5861 314.416 0.0447507 273.163 20.6639Z" fill="#0EAFE0" transform="matrix(1 0 0 -1 2328 1044.04)"/><path d="M0.00232634-6.875 471.167-6.71557 471.162 7.03443-0.00232634 6.875ZM464.296-20.4679 505.539 0.171063 464.282 20.7821Z" fill="#0EAFE0" transform="matrix(1 0 0 -1 1255 1226.17)"/><path d="M931.5 1150.67C931.5 1129.59 948.588 1112.5 969.667 1112.5L1217.33 1112.5C1238.41 1112.5 1255.5 1129.59 1255.5 1150.67L1255.5 1303.33C1255.5 1324.41 1238.41 1341.5 1217.33 1341.5L969.667 1341.5C948.588 1341.5 931.5 1324.41 931.5 1303.33Z" stroke="#F9B500" stroke-width="4.58333" stroke-miterlimit="8" fill="#F9B500" fill-rule="evenodd"/><g clip-path="url(#clip28)" filter="url(#fx13)" transform="translate(974 1155)"><g><path d="M30.038-32.062 17.94 0 13.11 0 1.012-32.062 5.474-32.062 15.548-4.416 25.622-32.062ZM32.7775-7.406 32.7775-10.58 48.9235-32.936 53.9375-32.936 53.9375-11.04 58.5375-11.04 58.5375-7.406 53.9375-7.406 53.9375 0 49.7975 0 49.7975-7.406ZM49.9815-28.566 37.6075-11.04 49.9815-11.04ZM67.3113-3.404 78.5353-3.404 78.5353 0 63.1253 0 63.1253-32.062 67.3113-32.062ZM81.9814-3.358C85.8761-6.486 88.9274-9.05433 91.1354-11.063 93.3434-13.0717 95.2064-15.1723 96.7244-17.365 98.2424-19.5577 99.0014-21.712 99.0014-23.828 99.0014-25.8213 98.5184-27.393 97.5524-28.543 96.5864-29.693 95.0301-30.268 92.8834-30.268 90.7981-30.268 89.1804-29.6163 88.0304-28.313 86.8804-27.0097 86.2594-25.2693 86.1674-23.092L82.1194-23.092C82.2421-26.5267 83.2847-29.1793 85.2474-31.05 87.2101-32.9207 89.7401-33.856 92.8374-33.856 95.9961-33.856 98.5031-32.982 100.358-31.234 102.214-29.486 103.141-27.0787 103.141-24.012 103.141-21.4667 102.382-18.9903 100.864-16.583 99.3464-14.1757 97.6214-12.0597 95.6894-10.235 93.7574-8.41033 91.2887-6.28667 88.2834-3.864L104.107-3.864 104.107-0.368 81.9814-0.368ZM119.698 0.322C117.582 0.322 115.688-0.0536667 114.017-0.805 112.345-1.55633 111.034-2.599 110.084-3.933 109.133-5.267 108.642-6.808 108.612-8.556L113.074-8.556C113.227-7.05333 113.848-5.78833 114.937-4.761 116.025-3.73367 117.612-3.22 119.698-3.22 121.691-3.22 123.263-3.71833 124.413-4.715 125.563-5.71167 126.138-6.992 126.138-8.556 126.138-9.78267 125.8-10.7793 125.126-11.546 124.451-12.3127 123.608-12.8953 122.596-13.294 121.584-13.6927 120.219-14.122 118.502-14.582 116.386-15.134 114.691-15.686 113.419-16.238 112.146-16.79 111.057-17.6563 110.153-18.837 109.248-20.0177 108.796-21.6047 108.796-23.598 108.796-25.346 109.24-26.8947 110.13-28.244 111.019-29.5933 112.269-30.636 113.879-31.372 115.489-32.108 117.336-32.476 119.422-32.476 122.427-32.476 124.888-31.7247 126.805-30.222 128.721-28.7193 129.802-26.726 130.048-24.242L125.448-24.242C125.294-25.4687 124.65-26.5497 123.516-27.485 122.381-28.4203 120.878-28.888 119.008-28.888 117.26-28.888 115.834-28.4357 114.73-27.531 113.626-26.6263 113.074-25.3613 113.074-23.736 113.074-22.5707 113.403-21.62 114.063-20.884 114.722-20.148 115.535-19.5883 116.501-19.205 117.467-18.8217 118.824-18.3847 120.572-17.894 122.688-17.3113 124.39-16.7363 125.678-16.169 126.966-15.6017 128.07-14.7277 128.99-13.547 129.91-12.3663 130.37-10.764 130.37-8.74 130.37-7.176 129.956-5.704 129.128-4.324 128.3-2.944 127.073-1.82467 125.448-0.966 123.822-0.107333 121.906 0.322 119.698 0.322ZM140.645-21.114C141.381-22.5553 142.431-23.6747 143.796-24.472 145.16-25.2693 146.824-25.668 148.787-25.668L148.787-21.344 147.683-21.344C142.991-21.344 140.645-18.7987 140.645-13.708L140.645 0 136.459 0 136.459-25.208 140.645-25.208ZM152.082-12.65C152.082-15.2567 152.603-17.5337 153.646-19.481 154.689-21.4283 156.138-22.9387 157.993-24.012 159.848-25.0853 161.972-25.622 164.364-25.622 167.461-25.622 170.014-24.8707 172.023-23.368 174.032-21.8653 175.358-19.78 176.002-17.112L171.494-17.112C171.065-18.6453 170.229-19.8567 168.987-20.746 167.745-21.6353 166.204-22.08 164.364-22.08 161.972-22.08 160.04-21.2597 158.568-19.619 157.096-17.9783 156.36-15.6553 156.36-12.65 156.36-9.614 157.096-7.268 158.568-5.612 160.04-3.956 161.972-3.128 164.364-3.128 166.204-3.128 167.737-3.55733 168.964-4.416 170.191-5.27467 171.034-6.50133 171.494-8.096L176.002-8.096C175.327-5.52 173.978-3.45767 171.954-1.909 169.93-0.360333 167.4 0.414 164.364 0.414 161.972 0.414 159.848-0.122667 157.993-1.196 156.138-2.26933 154.689-3.78733 153.646-5.75 152.603-7.71267 152.082-10.0127 152.082-12.65Z" transform="matrix(1 0 0 1 32.4942 61)"/></g></g><text font-family="Poppins,Poppins_MSFontService,sans-serif" font-weight="400" font-size="46" transform="matrix(1 0 0 1 1003.98 1213)">V4L2Src</text><g clip-path="url(#clip29)" filter="url(#fx14)" transform="translate(951 1210)"><g><path d="M14.306 8.556C11.362 5.67333 9.06967 2.00867 7.429-2.438 5.78833-6.88467 4.968-11.684 4.968-16.836 4.968-22.1107 5.83433-27.0403 7.567-31.625 9.29967-36.2097 11.776-39.9893 14.996-42.964L19.366-42.964 19.366-42.55C15.9313-39.33 13.3477-35.4583 11.615-30.935 9.88233-26.4117 9.016-21.712 9.016-16.836 9.016-12.0827 9.83633-7.544 11.477-3.22 13.1177 1.104 15.5173 4.89133 18.676 8.142L18.676 8.556ZM38.703 0.322C35.7283 0.322 33.0143-0.375667 30.561-1.771 28.1077-3.16633 26.168-5.11367 24.742-7.613 23.316-10.1123 22.603-12.926 22.603-16.054 22.603-19.182 23.316-21.9957 24.742-24.495 26.168-26.9943 28.1077-28.9417 30.561-30.337 33.0143-31.7323 35.7283-32.43 38.703-32.43 41.7083-32.43 44.4377-31.7323 46.891-30.337 49.3443-28.9417 51.2763-27.002 52.687-24.518 54.0977-22.034 54.803-19.2127 54.803-16.054 54.803-12.8953 54.0977-10.074 52.687-7.59 51.2763-5.106 49.3443-3.16633 46.891-1.771 44.4377-0.375667 41.7083 0.322 38.703 0.322ZM38.703-3.312C40.9417-3.312 42.958-3.83333 44.752-4.876 46.546-5.91867 47.9567-7.406 48.984-9.338 50.0113-11.27 50.525-13.5087 50.525-16.054 50.525-18.63 50.0113-20.8763 48.984-22.793 47.9567-24.7097 46.5537-26.1893 44.775-27.232 42.9963-28.2747 40.9723-28.796 38.703-28.796 36.4337-28.796 34.4097-28.2747 32.631-27.232 30.8523-26.1893 29.4493-24.7097 28.422-22.793 27.3947-20.8763 26.881-18.63 26.881-16.054 26.881-13.5087 27.3947-11.27 28.422-9.338 29.4493-7.406 30.86-5.91867 32.654-4.876 34.448-3.83333 36.4643-3.312 38.703-3.312ZM86.7567-32.062 74.6587 0 69.8287 0 57.7307-32.062 62.1927-32.062 72.2667-4.416 82.3407-32.062ZM111.714-29.624 95.5682-29.624 95.5682-19.136C96.2736-20.1173 97.3162-20.9223 98.6962-21.551 100.076-22.1797 101.564-22.494 103.158-22.494 105.704-22.494 107.774-21.965 109.368-20.907 110.963-19.849 112.105-18.4843 112.795-16.813 113.485-15.1417 113.83-13.3707 113.83-11.5 113.83-9.292 113.416-7.314 112.588-5.566 111.76-3.818 110.495-2.438 108.793-1.426 107.091-0.414 104.983 0.092 102.468 0.092 99.2482 0.092 96.6416-0.736 94.6482-2.392 92.6549-4.048 91.4436-6.256 91.0142-9.016L95.1082-9.016C95.5069-7.268 96.3502-5.90333 97.6382-4.922 98.9262-3.94067 100.552-3.45 102.514-3.45 104.937-3.45 106.762-4.17833 107.988-5.635 109.215-7.09167 109.828-9.016 109.828-11.408 109.828-13.8 109.215-15.6477 107.988-16.951 106.762-18.2543 104.952-18.906 102.56-18.906 100.935-18.906 99.5166-18.515 98.3052-17.733 97.0939-16.951 96.2122-15.8853 95.6602-14.536L91.7042-14.536 91.7042-33.304 111.714-33.304ZM137.692-25.346C137.017-28.75 134.917-30.452 131.39-30.452 128.661-30.452 126.621-29.4017 125.272-27.301 123.923-25.2003 123.263-21.7427 123.294-16.928 123.999-18.5227 125.172-19.7723 126.813-20.677 128.454-21.5817 130.286-22.034 132.31-22.034 135.469-22.034 137.991-21.0527 139.877-19.09 141.763-17.1273 142.706-14.4133 142.706-10.948 142.706-8.86267 142.3-6.992 141.487-5.336 140.674-3.68 139.448-2.36133 137.807-1.38 136.166-0.398667 134.181 0.092 131.85 0.092 128.691 0.092 126.223-0.613333 124.444-2.024 122.665-3.43467 121.423-5.382 120.718-7.866 120.013-10.35 119.66-13.4167 119.66-17.066 119.66-28.3207 123.585-33.948 131.436-33.948 134.441-33.948 136.803-33.1353 138.52-31.51 140.237-29.8847 141.249-27.83 141.556-25.346ZM131.436-18.492C130.117-18.492 128.875-18.2237 127.71-17.687 126.545-17.1503 125.602-16.3377 124.881-15.249 124.16-14.1603 123.8-12.834 123.8-11.27 123.8-8.93933 124.475-7.04567 125.824-5.589 127.173-4.13233 129.105-3.404 131.62-3.404 133.767-3.404 135.476-4.071 136.749-5.405 138.022-6.739 138.658-8.54067 138.658-10.81 138.658-13.202 138.045-15.0803 136.818-16.445 135.591-17.8097 133.797-18.492 131.436-18.492ZM147.361-7.406 147.361-10.58 163.507-32.936 168.521-32.936 168.521-11.04 173.121-11.04 173.121-7.406 168.521-7.406 168.521 0 164.381 0 164.381-7.406ZM164.565-28.566 152.191-11.04 164.565-11.04ZM177.019-16.974C177.019-22.2487 177.877-26.3657 179.595-29.325 181.312-32.2843 184.317-33.764 188.611-33.764 192.873-33.764 195.863-32.2843 197.581-29.325 199.298-26.3657 200.157-22.2487 200.157-16.974 200.157-11.6073 199.298-7.43667 197.581-4.462 195.863-1.48733 192.873 0 188.611 0 184.317 0 181.312-1.48733 179.595-4.462 177.877-7.43667 177.019-11.6073 177.019-16.974ZM196.017-16.974C196.017-19.642 195.84-21.9037 195.488-23.759 195.135-25.6143 194.414-27.1093 193.326-28.244 192.237-29.3787 190.665-29.946 188.611-29.946 186.525-29.946 184.938-29.3787 183.85-28.244 182.761-27.1093 182.04-25.6143 181.688-23.759 181.335-21.9037 181.159-19.642 181.159-16.974 181.159-14.214 181.335-11.8987 181.688-10.028 182.04-8.15733 182.761-6.65467 183.85-5.52 184.938-4.38533 186.525-3.818 188.611-3.818 190.665-3.818 192.237-4.38533 193.326-5.52 194.414-6.65467 195.135-8.15733 195.488-10.028 195.84-11.8987 196.017-14.214 196.017-16.974ZM205.02 8.556 205.02 8.142C208.179 4.89133 210.579 1.104 212.219-3.22 213.86-7.544 214.68-12.0827 214.68-16.836 214.68-21.712 213.814-26.4117 212.081-30.935 210.349-35.4583 207.765-39.33 204.33-42.55L204.33-42.964 208.7-42.964C211.92-39.9893 214.397-36.2097 216.129-31.625 217.862-27.0403 218.728-22.1107 218.728-16.836 218.728-11.684 217.908-6.88467 216.267-2.438 214.627 2.00867 212.334 5.67333 209.39 8.556Z" transform="matrix(1 0 0 1 32.8754 61)"/></g></g><text font-family="Poppins,Poppins_MSFontService,sans-serif" font-weight="400" font-size="46" transform="matrix(1 0 0 1 981.363 1268)">(OV5640)</text></g></svg>