<svg width="787" height="288" xmlns="http://www.w3.org/2000/svg" xmlns:xlink="http://www.w3.org/1999/xlink" overflow="hidden"><defs><clipPath id="clip0"><rect x="0" y="0" width="787" height="288"/></clipPath></defs><g clip-path="url(#clip0)"><rect x="0" y="0" width="787" height="288.061" fill="#FFFFFF" fill-opacity="0"/><path d="M0.500052 31.6737C0.500052 25.505 5.49966 20.5044 11.667 20.5044L120.333 20.5044C126.5 20.5044 131.5 25.505 131.5 31.6737L131.5 76.3492C131.5 82.5179 126.5 87.5185 120.333 87.5185L11.667 87.5185C5.49966 87.5185 0.500052 82.5179 0.500052 76.3492Z" stroke="#F9B500" stroke-width="1.33305" stroke-miterlimit="8" fill="#F9B500" fill-rule="evenodd"/><text font-family="Poppins,Poppins_MSFontService,sans-serif" font-weight="400" font-size="13" transform="matrix(1 0 0 1.00021 66.6775 49)">V4L2Src</text><text font-family="Poppins,Poppins_MSFontService,sans-serif" font-weight="400" font-size="13" transform="matrix(1 0 0 1.00021 53.347 65)">(camera)</text><path d="M214.5 31.6736C214.5 25.505 219.5 20.5044 225.667 20.5044L352.333 20.5044C358.5 20.5044 363.5 25.505 363.5 31.6736L363.5 76.3493C363.5 82.5179 358.5 87.5185 352.333 87.5185L225.667 87.5185C219.5 87.5185 214.5 82.5179 214.5 76.3493Z" stroke="#69CA00" stroke-width="1.33305" stroke-miterlimit="8" fill="#69CA00" fill-rule="evenodd"/><text font-family="Poppins,Poppins_MSFontService,sans-serif" font-weight="400" font-size="11" transform="matrix(1 0 0 1.00021 231.777 57)">Imxvideoconver_g2d</text><path d="M131.003 51.0112 203.652 51.1305 203.645 55.1305 130.997 55.0112ZM201.659 47.1272 213.646 53.1469 201.639 59.1272Z" fill="#0EAFE0"/><text fill="#0EAFE0" font-family="Poppins,Poppins_MSFontService,sans-serif" font-weight="400" font-size="12" transform="matrix(1 0 0 1.00021 142.395 16)">2592x1944</text><text fill="#0EAFE0" font-family="Poppins,Poppins_MSFontService,sans-serif" font-weight="400" font-size="12" transform="matrix(1 0 0 1.00021 155.472 30)">15 FPS</text><text fill="#0EAFE0" font-family="Poppins,Poppins_MSFontService,sans-serif" font-weight="400" font-size="12" transform="matrix(1 0 0 1.00021 158.225 45)">YUY2</text><path d="M445.5 31.6736C445.5 25.505 450.5 20.5044 456.667 20.5044L566.333 20.5044C572.5 20.5044 577.5 25.505 577.5 31.6736L577.5 76.3493C577.5 82.5179 572.5 87.5185 566.333 87.5185L456.667 87.5185C450.5 87.5185 445.5 82.5179 445.5 76.3493Z" stroke="#F9B500" stroke-width="1.33305" stroke-miterlimit="8" fill="#F9B500" fill-rule="evenodd"/><text font-family="Poppins,Poppins_MSFontService,sans-serif" font-weight="400" font-size="13" transform="matrix(1 0 0 1.00021 478.006 57)">GstQueue</text><path d="M5.07911e-06-1.99958 72.6485-1.99939 72.6484 1.99976-5.07911e-06 1.99958ZM70.6489-5.99855 82.6463 0.000209929 70.6489 5.99891Z" fill="#0EAFE0" transform="matrix(1 0 0 -1.00021 363 53.0114)"/><text fill="#0EAFE0" font-family="Poppins,Poppins_MSFontService,sans-serif" font-weight="400" font-size="12" transform="matrix(1 0 0 1.00021 375.316 16)">1920x1088</text><text fill="#0EAFE0" font-family="Poppins,Poppins_MSFontService,sans-serif" font-weight="400" font-size="12" transform="matrix(1 0 0 1.00021 386.894 30)">15 FPS</text><text fill="#0EAFE0" font-family="Poppins,Poppins_MSFontService,sans-serif" font-weight="400" font-size="12" transform="matrix(1 0 0 1.00021 389.313 45)">RGBx</text><path d="M660.5 31.6736C660.5 25.505 665.5 20.5044 671.667 20.5044L744.333 20.5044C750.5 20.5044 755.5 25.505 755.5 31.6736L755.5 76.3493C755.5 82.5179 750.5 87.5185 744.333 87.5185L671.667 87.5185C665.5 87.5185 660.5 82.5179 660.5 76.3493Z" stroke="#69CA00" stroke-width="1.33305" stroke-miterlimit="8" fill="#69CA00" fill-rule="evenodd"/><text font-family="Poppins,Poppins_MSFontService,sans-serif" font-weight="400" font-size="13" transform="matrix(1 0 0 1.00021 694.288 49)">VPU</text><text font-family="Poppins,Poppins_MSFontService,sans-serif" font-weight="400" font-size="13" transform="matrix(1 0 0 1.00021 673.212 65)">(encoder)</text><path d="M7.61866e-06-1.99958 72.6485-1.9993 72.6484 1.99985-7.61866e-06 1.99958ZM70.6489-5.99846 82.6463 0.000314894 70.6488 5.999Z" fill="#0EAFE0" transform="matrix(1 0 0 -1.00021 577 53.0115)"/><text fill="#0EAFE0" font-family="Poppins,Poppins_MSFontService,sans-serif" font-weight="400" font-size="12" transform="matrix(1 0 0 1.00021 589.361 18)">1920x1088</text><text fill="#0EAFE0" font-family="Poppins,Poppins_MSFontService,sans-serif" font-weight="400" font-size="12" transform="matrix(1 0 0 1.00021 600.938 32)">15 FPS</text><text fill="#0EAFE0" font-family="Poppins,Poppins_MSFontService,sans-serif" font-weight="400" font-size="12" transform="matrix(1 0 0 1.00021 603.358 47)">RGBx</text><path d="M0.500052 209.711C0.500052 203.543 5.49962 198.542 11.6669 198.542L138.333 198.542C144.5 198.542 149.5 203.543 149.5 209.711L149.5 254.387C149.5 260.555 144.5 265.556 138.333 265.556L11.6669 265.556C5.49962 265.556 0.500052 260.555 0.500052 254.387Z" stroke="#F9B500" stroke-width="1.33305" stroke-miterlimit="8" fill="#F9B500" fill-rule="evenodd"/><text font-family="Poppins,Poppins_MSFontService,sans-serif" font-weight="400" font-size="13" transform="matrix(1 0 0 1.00021 25.4814 235)">GstMultiQueue</text><text fill="#0EAFE0" font-family="Poppins,Poppins_MSFontService,sans-serif" font-weight="400" font-size="12" transform="matrix(1 0 0 1.00021 719.617 105)">1920x1088</text><text fill="#0EAFE0" font-family="Poppins,Poppins_MSFontService,sans-serif" font-weight="400" font-size="12" transform="matrix(1 0 0 1.00021 731.195 119)">15 FPS</text><text fill="#0EAFE0" font-family="Poppins,Poppins_MSFontService,sans-serif" font-weight="400" font-size="12" transform="matrix(1 0 0 1.00021 733.281 134)">sRGB</text><path d="M231.5 211.712C231.5 205.543 236.5 200.542 242.667 200.542L342.333 200.542C348.5 200.542 353.5 205.543 353.5 211.712L353.5 256.387C353.5 262.556 348.5 267.557 342.333 267.557L242.667 267.557C236.5 267.557 231.5 262.556 231.5 256.387Z" stroke="#69CA00" stroke-width="1.33305" stroke-miterlimit="8" fill="#69CA00" fill-rule="evenodd"/><text font-family="Poppins,Poppins_MSFontService,sans-serif" font-weight="400" font-size="13" transform="matrix(1 0 0 1.00021 279.456 230)">VPU</text><text font-family="Poppins,Poppins_MSFontService,sans-serif" font-weight="400" font-size="13" transform="matrix(1 0 0 1.00021 258.127 246)">(decoder)</text><path d="M149 231.049 221.596 231.049 221.596 235.049 149 235.049ZM219.597 227.049 231.594 233.049 219.597 239.049Z" fill="#0EAFE0"/><text fill="#0EAFE0" font-family="Poppins,Poppins_MSFontService,sans-serif" font-weight="400" font-size="12" transform="matrix(1 0 0 1.00021 161.273 196)">1920x1088</text><text fill="#0EAFE0" font-family="Poppins,Poppins_MSFontService,sans-serif" font-weight="400" font-size="12" transform="matrix(1 0 0 1.00021 172.85 210)">15 FPS</text><text fill="#0EAFE0" font-family="Poppins,Poppins_MSFontService,sans-serif" font-weight="400" font-size="12" transform="matrix(1 0 0 1.00021 174.937 225)">sRGB</text><path d="M436.5 211.712C436.5 205.543 441.5 200.542 447.667 200.542L524.333 200.542C530.5 200.542 535.5 205.543 535.5 211.712L535.5 256.387C535.5 262.556 530.5 267.557 524.333 267.557L447.667 267.557C441.5 267.557 436.5 262.556 436.5 256.387Z" stroke="#69CA00" stroke-width="1.33305" stroke-miterlimit="8" fill="#69CA00" fill-rule="evenodd"/><text font-family="Poppins,Poppins_MSFontService,sans-serif" font-weight="400" font-size="13" transform="matrix(1 0 0 1.00021 455.626 230)">Wayland</text><text font-family="Poppins,Poppins_MSFontService,sans-serif" font-weight="400" font-size="13" transform="matrix(1 0 0 1.00021 472.035 246)">Sink</text><text fill="#0EAFE0" font-family="Poppins,Poppins_MSFontService,sans-serif" font-weight="400" font-size="12" transform="matrix(1 0 0 1.00021 365.597 196)">1920x1088</text><text fill="#0EAFE0" font-family="Poppins,Poppins_MSFontService,sans-serif" font-weight="400" font-size="12" transform="matrix(1 0 0 1.00021 377.175 210)">15 FPS</text><text fill="#0EAFE0" font-family="Poppins,Poppins_MSFontService,sans-serif" font-weight="400" font-size="12" transform="matrix(1 0 0 1.00021 379.261 225)">sRGB</text><path d="M353.001 231.049 425.597 231.085 425.595 235.085 352.999 235.049ZM423.6 227.084 435.594 233.089 423.594 239.084Z" fill="#0EAFE0"/><path d="M708.734 87.0184 708.734 144.662 73.9999 144.662 75.9995 142.662 75.9995 188.306 72.0004 188.306 72.0004 140.662 706.734 140.662 704.734 142.662 704.734 87.0184ZM79.9987 186.306 73.9999 198.306 68.0012 186.306Z" fill="#0EAFE0"/><path d="M24.4409 44.1781 24.4409 44.1781 4.64342 54.9655C4.58717 54.4367 4.58717 53.9608 4.58717 53.5378 4.58717 47.4038 7.39932 41.6399 12.2925 37.6211L24.4409 44.1781ZM36.8706 56.076 36.8706 56.076 36.8706 34.6069C43.1699 37.5153 47.6693 43.0148 49.0191 49.4661L36.8706 56.076ZM41.7075 69.4016 41.7075 69.4016 29.5591 62.8446 49.3566 52.0572C49.4128 52.5331 49.4128 53.009 49.4128 53.5378 49.4128 59.6189 46.6007 65.3828 41.7075 69.4016ZM19.7165 60.2535 19.7165 60.2535 39.5141 70.988C35.802 73.3676 31.4713 74.5838 26.9719 74.5838 24.4972 74.5838 22.0225 74.2137 19.7165 73.4205L19.7165 60.2535ZM19.7165 57.5037 19.7165 57.5037 19.7165 49.5718 27.0281 45.6059 34.2835 49.5718 34.2835 57.4509 26.9719 61.4168 19.7165 57.5037ZM14.4859 36.0347 14.4859 36.0347C18.198 33.6551 22.5287 32.4389 26.9719 32.4389 29.5028 32.4389 31.9775 32.809 34.2835 33.6022L34.2835 46.7692 14.4859 36.0347ZM17.1294 50.9467 17.1294 50.9467 17.1294 72.4158C10.8301 69.5074 6.33071 64.0079 4.98088 57.5566L17.1294 50.9467ZM26.9719 30.0064 26.9719 30.0064C13.2486 30.0064 2 40.5823 2 53.5378 2 66.4404 13.2486 77.0163 26.9719 77.0163 40.7514 77.0163 52 66.4404 52 53.5378 52 40.5823 40.7514 30.0064 26.9719 30.0064Z" fill-rule="evenodd"/></g></svg>